<?xml version="1.0" encoding="utf-8"?>
<!-- Generator: Adobe Illustrator 24.1.2, SVG Export Plug-In . SVG Version: 6.00 Build 0)  -->
<svg version="1.1" id="colours" xmlns="http://www.w3.org/2000/svg" xmlns:xlink="http://www.w3.org/1999/xlink" x="0px" y="0px"
	 viewBox="0 0 512 512" style="enable-background:new 0 0 512 512;" xml:space="preserve">
<style type="text/css">
	.st0{fill:#1BB76E;}
	.st1{fill:#4C241D;}
	.st2{fill:#EFEFD2;}
	.st3{fill:#BD53B5;}
	.st4{fill:#FFCE56;}
	.st5{fill:#FC8C29;}
	.st6{fill:#E66353;}
	.st7{fill:#9DC1E4;}
</style>
<g>
	<circle class="st0" cx="286.7" cy="297" r="146.8"/>
	<g>
		<path class="st1" d="M395.4,432.9c-1.7,0-3.5-0.7-4.8-2l-19.3-19.3c-2.7-2.7-2.7-7,0-9.7c2.7-2.7,7-2.7,9.7,0l19.3,19.3
			c2.7,2.7,2.7,7,0,9.7C398.9,432.2,397.1,432.9,395.4,432.9z"/>
		<path class="st1" d="M376.1,432.9c-1.7,0-3.5-0.7-4.8-2c-2.7-2.7-2.7-7,0-9.7l19.3-19.3c2.7-2.7,7-2.7,9.7,0s2.7,7,0,9.7
			l-19.3,19.3C379.5,432.2,377.8,432.9,376.1,432.9z"/>
		<circle class="st1" cx="399.4" cy="327.7" r="6.8"/>
	</g>
	<g>
		<path class="st2" d="M245.1,75.4c-85,5.3-154.2,74.4-159.4,159.4c-6.2,99.2,72.5,181.6,170.3,181.6v-47.8
			c-15.1,0-27.3-12.2-27.3-27.3v-6.8c0-15.1,12.2-27.3,27.3-27.3h108.2c33.8,0,62.3-26.9,62.5-60.8c0-0.2,0-0.4,0-0.7
			C426.7,147.9,344.3,69.3,245.1,75.4L245.1,75.4z"/>
		<path class="st1" d="M256,423.3c-48.8,0-95.9-20.4-129.4-56c-33.9-36.1-50.9-83.2-47.8-132.8c5.5-89,76.8-160.3,165.8-165.8
			c49.5-3.1,96.8,13.9,132.8,47.8c35.6,33.4,56,80.6,56,129.4c-0.1,37.9-31.2,68.3-69.3,68.3H256c-11.3,0-20.5,9.2-20.5,20.5v6.8
			c0,11.3,9.2,20.5,20.5,20.5c3.8,0,6.8,3.1,6.8,6.8v47.8C262.8,420.2,259.8,423.3,256,423.3z M256.1,81.9c-3.5,0-7,0.1-10.6,0.3
			c-82.2,5.1-147.9,70.9-153,153c-2.8,45.8,12.8,89.4,44.1,122.6c29.7,31.6,69.5,49.8,112.6,51.5v-34.7c-15.6-3.2-27.3-17-27.3-33.4
			v-6.8c0-18.8,15.3-34.1,34.1-34.1h108.2c30.6,0,55.5-24.2,55.6-54c0-46.3-18.3-88.7-51.7-120C337.5,97.5,298,81.9,256.1,81.9
			L256.1,81.9z M245.1,75.4L245.1,75.4L245.1,75.4z"/>
	</g>
	<g>
		<circle class="st3" cx="358.4" cy="191.2" r="27.3"/>
		<path class="st1" d="M358.4,225.3c-18.8,0-34.1-15.3-34.1-34.1s15.3-34.1,34.1-34.1s34.1,15.3,34.1,34.1S377.2,225.3,358.4,225.3z
			 M358.4,170.7c-11.3,0-20.5,9.2-20.5,20.5c0,11.3,9.2,20.5,20.5,20.5s20.5-9.2,20.5-20.5C378.9,179.9,369.7,170.7,358.4,170.7z"/>
	</g>
	<g>
		<circle class="st4" cx="146.8" cy="211.6" r="27.3"/>
		<path class="st1" d="M146.8,245.8c-18.8,0-34.1-15.3-34.1-34.1s15.3-34.1,34.1-34.1s34.1,15.3,34.1,34.1S165.6,245.8,146.8,245.8z
			 M146.8,191.2c-11.3,0-20.5,9.2-20.5,20.5c0,11.3,9.2,20.5,20.5,20.5c11.3,0,20.5-9.2,20.5-20.5
			C167.3,200.3,158.1,191.2,146.8,191.2z"/>
	</g>
	<g>
		<circle class="st5" cx="153.6" cy="300.4" r="27.3"/>
		<path class="st1" d="M153.6,334.5c-18.8,0-34.1-15.3-34.1-34.1s15.3-34.1,34.1-34.1s34.1,15.3,34.1,34.1S172.4,334.5,153.6,334.5z
			 M153.6,279.9c-11.3,0-20.5,9.2-20.5,20.5c0,11.3,9.2,20.5,20.5,20.5c11.3,0,20.5-9.2,20.5-20.5
			C174.1,289.1,164.9,279.9,153.6,279.9z"/>
	</g>
	<g>
		<circle class="st6" cx="290.1" cy="136.5" r="27.3"/>
		<path class="st1" d="M290.1,170.7c-18.8,0-34.1-15.3-34.1-34.1s15.3-34.1,34.1-34.1s34.1,15.3,34.1,34.1S309,170.7,290.1,170.7z
			 M290.1,116.1c-11.3,0-20.5,9.2-20.5,20.5s9.2,20.5,20.5,20.5c11.3,0,20.5-9.2,20.5-20.5S301.4,116.1,290.1,116.1z"/>
	</g>
	<g>
		<path class="st7" d="M201.4,116.1c-15.1,0-27.3,12.2-27.3,27.3c0,15.1,12.2,27.3,27.3,27.3c2.4,0,4.6-0.4,6.8-1v11.2
			c0,5.7,4.6,10.2,10.2,10.2c5.7,0,10.2-4.6,10.2-10.2v-37.5C228.7,128.3,216.5,116.1,201.4,116.1L201.4,116.1z"/>
		<path class="st1" d="M218.5,198c-9.4,0-17.1-7.7-17.1-17.1v-3.4c-18.8,0-34.1-15.3-34.1-34.1s15.3-34.1,34.1-34.1
			s34.1,15.3,34.1,34.1v37.5C235.5,190.3,227.9,198,218.5,198z M208.2,162.9c1.5,0,3,0.5,4.2,1.4c1.7,1.3,2.6,3.3,2.6,5.4v11.2
			c0,1.9,1.5,3.4,3.4,3.4c1.9,0,3.4-1.5,3.4-3.4v-37.5c0-11.3-9.2-20.5-20.5-20.5c-11.3,0-20.5,9.2-20.5,20.5
			c0,11.3,9.2,20.5,20.5,20.5c1.5,0,3.1-0.2,5.1-0.7C207.1,163,207.6,162.9,208.2,162.9z"/>
	</g>
	<path class="st1" d="M208.2,177.5c-3.8,0-6.8-3.1-6.8-6.8V157c0-3.8,3.1-6.8,6.8-6.8s6.8,3.1,6.8,6.8v13.7
		C215,174.4,212,177.5,208.2,177.5z"/>
</g>
</svg>
