<?xml version="1.0" encoding="utf-8"?>
<!-- Generator: Adobe Illustrator 24.1.2, SVG Export Plug-In . SVG Version: 6.00 Build 0)  -->
<svg version="1.1" fill="#ced4da" id="horizontal-scale" xmlns="http://www.w3.org/2000/svg" xmlns:xlink="http://www.w3.org/1999/xlink" x="0px"
	 y="0px" viewBox="0 0 512 512" style="enable-background:new 0 0 512 512;" xml:space="preserve">

<style type="text/css">
	svg{
		cursor:pointer;
		transition:all 0.12s ease;
	}

	svg:hover{
		fill:#1bb76e;
	}
</style>

<g>
	<path class="st0" d="M133.1,276.5c-11.3,0-20.5-9.2-20.5-20.5c0-11.3,9.2-20.5,20.5-20.5c11.3,0,20.5,9.2,20.5,20.5
		C153.6,267.3,144.4,276.5,133.1,276.5z M133.1,249.2c-3.8,0-6.8,3.1-6.8,6.8c0,3.8,3.1,6.8,6.8,6.8c3.8,0,6.8-3.1,6.8-6.8
		C139.9,252.2,136.9,249.2,133.1,249.2z"/>
	<circle class="st0" cx="375.8" cy="232.1" r="7.7"/>
	<circle class="st0" cx="348.5" cy="286.7" r="7.7"/>
</g>
<g>
	<path class="st0" d="M365.5,440.3c-1.1,0-2.2-0.3-3.2-0.8c-2.2-1.2-3.7-3.5-3.7-6V413H153.3v20.5c0,2.5-1.4,4.9-3.7,6
		c-2.2,1.2-5,1-7.1-0.4l-54.4-37.5c-1.8-1.3-2.9-3.4-2.9-5.6s1.1-4.3,2.9-5.6l54.4-37.5c2.1-1.4,4.8-1.6,7.1-0.4
		c2.2,1.2,3.7,3.5,3.7,6v20.5h205.3v-20.5c0-2.5,1.4-4.9,3.7-6c2.2-1.2,5-1,7.1,0.4l54.4,37.5c1.8,1.3,2.9,3.4,2.9,5.6
		c0,2.2-1.1,4.3-2.9,5.6l-54.4,37.5C368.2,439.9,366.8,440.3,365.5,440.3L365.5,440.3z M146.5,399.4h219c3.8,0,6.8,3.1,6.8,6.8v14.3
		l35.5-24.5l-35.5-24.5v14.3c0,3.8-3.1,6.8-6.8,6.8h-219c-3.8,0-6.8-3.1-6.8-6.8v-14.3l-35.5,24.5l35.5,24.5v-14.3
		C139.7,402.4,142.7,399.4,146.5,399.4z"/>
</g>
<g>
	<path class="st0" d="M317.4,358.4H194.6c-3.8,0-6.8-3.1-6.8-6.8v-21.8c0-10.6,8.6-19.2,19.2-19.2h15V126.3h-54.6v15
		c0,10.6-8.6,19.2-19.2,19.2h-21.8c-3.8,0-6.8-3.1-6.8-6.8V78.5c0-3.8,3.1-6.8,6.8-6.8h259.4c3.8,0,6.8,3.1,6.8,6.8v75.1
		c0,3.8-3.1,6.8-6.8,6.8h-21.8c-10.6,0-19.2-8.6-19.2-19.2v-15h-54.6v184.3h15c10.6,0,19.2,8.6,19.2,19.2v21.8
		C324.3,355.3,321.2,358.4,317.4,358.4z M201.4,344.7h109.2v-15c0-3-2.5-5.5-5.5-5.5h-21.8c-3.8,0-6.8-3.1-6.8-6.8v-198
		c0-3.8,3.1-6.8,6.8-6.8h68.3c3.8,0,6.8,3.1,6.8,6.8v21.8c0,3,2.5,5.5,5.5,5.5h15V85.3H133.1v61.4h15c3,0,5.5-2.5,5.5-5.5v-21.8
		c0-3.8,3.1-6.8,6.8-6.8h68.3c3.8,0,6.8,3.1,6.8,6.8v198c0,3.8-3.1,6.8-6.8,6.8h-21.8c-3,0-5.5,2.5-5.5,5.5V344.7z"/>
</g>
<path class="st0" d="M249.2,78.5h13.7v273.1h-13.7V78.5z"/>
</svg>
