<?xml version="1.0" encoding="utf-8"?>
<!-- Generator: Adobe Illustrator 24.1.2, SVG Export Plug-In . SVG Version: 6.00 Build 0)  -->
<svg version="1.1" id="folder-code" xmlns="http://www.w3.org/2000/svg" xmlns:xlink="http://www.w3.org/1999/xlink" x="0px"
	 y="0px" viewBox="0 0 512 512" style="enable-background:new 0 0 512 512;" xml:space="preserve">
<style type="text/css">
	.st0{fill:#E5EFEF;}
	.st1{fill:#1BB76E;}
	.st2{fill:#4C241D;}
	.st3{fill:#E2E2E2;}
	.st4{fill:#E7E8DF;}
</style>
<g>
	<circle class="st0" cx="198" cy="208.2" r="146.8"/>
	<circle class="st1" cx="198" cy="208.2" r="146.8"/>
	<g>
		<path class="st2" d="M265.7,139.4c-1.7,0-3.5-0.7-4.8-2l-19.3-19.3c-2.7-2.7-2.7-7,0-9.7c2.7-2.7,7-2.7,9.7,0l19.3,19.3
			c2.7,2.7,2.7,7,0,9.7C269.1,138.7,267.4,139.4,265.7,139.4z"/>
		<path class="st2" d="M246.3,139.4c-1.7,0-3.5-0.7-4.8-2c-2.7-2.7-2.7-7,0-9.7l19.3-19.3c2.7-2.7,7-2.7,9.7,0c2.7,2.7,2.7,7,0,9.7
			l-19.3,19.3C249.8,138.7,248.1,139.4,246.3,139.4L246.3,139.4z"/>
		<circle class="st2" cx="331.1" cy="150.2" r="6.8"/>
		<circle class="st2" cx="310.6" cy="75.1" r="6.8"/>
	</g>
	<g>
		<path class="st3" d="M413,443.7H139.9c-11.3,0-20.5-9.2-20.5-20.5v-13.7h314v13.7C433.5,434.6,424.3,443.7,413,443.7z"/>
		<path class="st2" d="M413,450.6H139.9c-15.1,0-27.3-12.2-27.3-27.3v-13.7c0-3.8,3.1-6.8,6.8-6.8h314c3.8,0,6.8,3.1,6.8,6.8v13.7
			C440.3,438.3,428.1,450.6,413,450.6z M126.3,416.4v6.8c0,7.5,6.1,13.7,13.7,13.7H413c7.5,0,13.7-6.1,13.7-13.7v-6.8H126.3z"/>
	</g>
	<g>
		<path class="st4" d="M189,423.3h239.4c14.1,0,25.5-11.2,25.5-25V211.6c0-15.1-12.2-27.3-27.3-27.3H227.2l-15.1-31.4
			c-4.6-6.3-12-10-19.8-10h-76.1c-13.3,0-24,10.5-24,23.5V183v30v185.3c0,13.8,11.4,25,25.5,25h36.1"/>
		<path class="st2" d="M428.5,430.1H189c-3.8,0-6.8-3.1-6.8-6.8s3.1-6.8,6.8-6.8h239.4c10.3,0,18.7-8.1,18.7-18.1V211.6
			c0-11.3-9.2-20.5-20.5-20.5H227.2c-2.6,0-5-1.5-6.2-3.9l-14.9-30.8c-3.3-4.2-8.5-6.7-14-6.7h-76.1c-9.5,0-17.2,7.5-17.2,16.7
			v231.9c0,10,8.4,18.1,18.7,18.1h36.1c3.8,0,6.8,3.1,6.8,6.8s-3.1,6.8-6.8,6.8h-36.1c-17.8,0-32.3-14.3-32.3-31.8V166.4
			c0-16.7,13.8-30.3,30.9-30.3h76.1c10,0,19.5,4.8,25.3,12.8c0.2,0.3,0.5,0.7,0.6,1.1l13.3,27.6h195.2c18.8,0,34.1,15.3,34.1,34.1
			v186.7C460.8,415.8,446.3,430.1,428.5,430.1L428.5,430.1z"/>
	</g>
	<path class="st2" d="M228.7,191.1h-47.8c-3.8,0-6.8-3.1-6.8-6.8s3.1-6.8,6.8-6.8h47.8c3.8,0,6.8,3.1,6.8,6.8
		S232.5,191.1,228.7,191.1z"/>
	<path class="st2" d="M235.5,334.5c-1.4,0-2.9-0.4-4.1-1.4l-27.3-20.5c-1.7-1.3-2.7-3.3-2.7-5.5s1-4.2,2.7-5.5l27.3-20.5
		c3-2.3,7.3-1.7,9.6,1.4c2.3,3,1.7,7.3-1.4,9.6l-20,15l20,15c3,2.3,3.6,6.5,1.4,9.6C239.6,333.6,237.6,334.5,235.5,334.5z"/>
	<path class="st2" d="M310.6,334.5c-2.1,0-4.1-0.9-5.5-2.7c-2.3-3-1.7-7.3,1.4-9.6l20-15l-20-15c-3-2.3-3.6-6.5-1.4-9.6
		c2.3-3,6.5-3.6,9.6-1.4l27.3,20.5c1.7,1.3,2.7,3.3,2.7,5.5c0,2.1-1,4.2-2.7,5.5l-27.3,20.5C313.5,334.1,312,334.5,310.6,334.5z"/>
	<path class="st2" d="M262.8,355c-0.5,0-1.1-0.1-1.7-0.2c-3.7-0.9-5.9-4.6-5-8.3l20.5-81.9c0.9-3.7,4.6-5.9,8.3-5
		c3.7,0.9,5.9,4.6,5,8.3l-20.5,81.9C268.7,352.9,265.9,355,262.8,355z"/>
</g>
</svg>
