<svg xmlns="http://www.w3.org/2000/svg" xmlns:xlink="http://www.w3.org/1999/xlink" viewBox="0 0 356.09 318.76"><defs><style>.cls-1{isolation:isolate;}.cls-10,.cls-12,.cls-18,.cls-2,.cls-26,.cls-29,.cls-31,.cls-35,.cls-38,.cls-45,.cls-54,.cls-63,.cls-67,.cls-70,.cls-71{mix-blend-mode:multiply;}.cls-2{fill:url(#linear-gradient);}.cls-3{fill:url(#linear-gradient-2);}.cls-4{fill:url(#linear-gradient-3);}.cls-5{fill:#575e91;}.cls-6{fill:url(#linear-gradient-4);}.cls-7{fill:url(#linear-gradient-5);}.cls-8{fill:url(#linear-gradient-6);}.cls-9{fill:#e8f9f6;}.cls-10{fill:url(#linear-gradient-7);}.cls-11{fill:url(#linear-gradient-8);}.cls-12{fill:url(#linear-gradient-9);}.cls-13{fill:url(#linear-gradient-10);}.cls-14{fill:url(#linear-gradient-11);}.cls-15{fill:url(#linear-gradient-12);}.cls-16{fill:url(#linear-gradient-13);}.cls-17{fill:url(#linear-gradient-14);}.cls-18{fill:url(#linear-gradient-15);}.cls-19{fill:url(#linear-gradient-16);}.cls-20{fill:url(#linear-gradient-17);}.cls-21{fill:#30bfbf;}.cls-22{fill:url(#linear-gradient-18);}.cls-23{fill:url(#linear-gradient-19);}.cls-24{fill:url(#linear-gradient-20);}.cls-25{fill:#18898e;}.cls-26{fill:url(#linear-gradient-21);}.cls-27{fill:url(#linear-gradient-22);}.cls-28{fill:url(#linear-gradient-23);}.cls-29{fill:url(#linear-gradient-24);}.cls-30{fill:url(#linear-gradient-25);}.cls-31{fill:url(#linear-gradient-26);}.cls-32{fill:#ffdf85;}.cls-33{fill:url(#linear-gradient-27);}.cls-34{fill:url(#linear-gradient-28);}.cls-35{fill:url(#linear-gradient-29);}.cls-36{fill:url(#linear-gradient-30);}.cls-37{fill:url(#linear-gradient-31);}.cls-38{fill:url(#linear-gradient-32);}.cls-39{fill:url(#linear-gradient-33);}.cls-40{fill:url(#linear-gradient-34);}.cls-41{fill:#1bb76e;}.cls-42{fill:#ffd249;}.cls-43{fill:url(#linear-gradient-35);}.cls-44{fill:url(#linear-gradient-36);}.cls-45{fill:url(#linear-gradient-37);}.cls-46{fill:url(#linear-gradient-38);}.cls-47{fill:url(#linear-gradient-39);}.cls-48{fill:url(#linear-gradient-40);}.cls-49{fill:#6b4c0b;}.cls-50{fill:url(#linear-gradient-41);}.cls-51{fill:url(#linear-gradient-42);}.cls-52{fill:#e5a488;}.cls-53{fill:#f3b698;}.cls-54{fill:#d1d3d4;}.cls-55{fill:url(#linear-gradient-43);}.cls-56{fill:url(#linear-gradient-44);}.cls-57{fill:url(#linear-gradient-45);}.cls-58{fill:url(#linear-gradient-46);}.cls-59{fill:url(#linear-gradient-47);}.cls-60{fill:url(#linear-gradient-48);}.cls-61{fill:url(#linear-gradient-49);}.cls-62{fill:url(#linear-gradient-50);}.cls-63{fill:url(#linear-gradient-51);}.cls-64{fill:url(#linear-gradient-52);}.cls-65{fill:url(#linear-gradient-53);}.cls-66{fill:url(#linear-gradient-54);}.cls-67{fill:url(#linear-gradient-55);}.cls-68{fill:url(#linear-gradient-56);}.cls-69{fill:url(#linear-gradient-57);}.cls-70{fill:url(#linear-gradient-58);}.cls-71{fill:url(#linear-gradient-59);}.cls-72{fill:#54c992;}.cls-73{fill:url(#linear-gradient-60);}.cls-74{fill:url(#linear-gradient-61);}.cls-75{fill:url(#linear-gradient-62);}.cls-76{fill:url(#linear-gradient-63);}</style><linearGradient id="linear-gradient" x1="303.78" y1="220.25" x2="356.09" y2="220.25" gradientUnits="userSpaceOnUse"><stop offset="0" stop-color="#d1d3d4"/><stop offset="0.57" stop-color="#eeefef"/><stop offset="1" stop-color="#fff"/></linearGradient><linearGradient id="linear-gradient-2" x1="380.41" y1="231.01" x2="383.53" y2="231.01" gradientUnits="userSpaceOnUse"><stop offset="0" stop-color="#1bb76e"/><stop offset="1" stop-color="#1bb76e"/></linearGradient><linearGradient id="linear-gradient-3" x1="351.91" y1="268.76" x2="401.8" y2="268.76" xlink:href="#linear-gradient-2"/><linearGradient id="linear-gradient-4" x1="351.91" y1="260.52" x2="401.8" y2="260.52" xlink:href="#linear-gradient-2"/><linearGradient id="linear-gradient-5" x1="360.43" y1="237.9" x2="393.2" y2="237.9" gradientUnits="userSpaceOnUse"><stop offset="0" stop-color="#d2e9e6"/><stop offset="1" stop-color="#a6d3d1"/></linearGradient><linearGradient id="linear-gradient-6" x1="362.99" y1="240.98" x2="390.64" y2="240.98" gradientUnits="userSpaceOnUse"><stop offset="0" stop-color="#fcd24a"/><stop offset="1" stop-color="#e5bb2a"/></linearGradient><linearGradient id="linear-gradient-7" x1="282.24" y1="220.34" x2="290.23" y2="220.34" xlink:href="#linear-gradient"/><linearGradient id="linear-gradient-8" x1="353.74" y1="237.8" x2="356.89" y2="237.8" xlink:href="#linear-gradient-2"/><linearGradient id="linear-gradient-9" x1="318.78" y1="226.75" x2="321.9" y2="226.75" xlink:href="#linear-gradient"/><linearGradient id="linear-gradient-10" x1="390.28" y1="244.2" x2="393.43" y2="244.2" xlink:href="#linear-gradient-2"/><linearGradient id="linear-gradient-11" x1="351.91" y1="216.21" x2="401.8" y2="216.21" xlink:href="#linear-gradient-2"/><linearGradient id="linear-gradient-12" x1="351.91" y1="208.23" x2="401.8" y2="208.23" xlink:href="#linear-gradient-2"/><linearGradient id="linear-gradient-13" x1="356.89" y1="212.16" x2="396.83" y2="212.16" xlink:href="#linear-gradient-2"/><linearGradient id="linear-gradient-14" x1="356.89" y1="205.78" x2="396.83" y2="205.78" xlink:href="#linear-gradient-2"/><linearGradient id="linear-gradient-15" x1="178.59" y1="239.46" x2="338.57" y2="239.46" gradientUnits="userSpaceOnUse"><stop offset="0" stop-color="#d1d3d4"/><stop offset="0.14" stop-color="#dedfe0"/><stop offset="0.41" stop-color="#f0f1f1"/><stop offset="0.69" stop-color="#fbfcfc"/><stop offset="1" stop-color="#fff"/></linearGradient><linearGradient id="linear-gradient-16" x1="168.94" y1="-207.65" x2="231.41" y2="-135.52" gradientTransform="matrix(1, 0.58, 0, 1, 0, 156.43)" xlink:href="#linear-gradient-6"/><linearGradient id="linear-gradient-17" x1="171.56" y1="274.18" x2="336.78" y2="274.18" gradientUnits="userSpaceOnUse"><stop offset="0" stop-color="#18898e"/><stop offset="1" stop-color="#06616f"/></linearGradient><linearGradient id="linear-gradient-18" x1="171.61" y1="258.52" x2="336.73" y2="258.52" gradientUnits="userSpaceOnUse"><stop offset="0" stop-color="#2ca2a0"/><stop offset="1" stop-color="#18898e"/></linearGradient><linearGradient id="linear-gradient-19" x1="195.64" y1="253.01" x2="312.53" y2="253.01" xlink:href="#linear-gradient-17"/><linearGradient id="linear-gradient-20" x1="195.68" y1="241.93" x2="312.48" y2="241.93" xlink:href="#linear-gradient-18"/><linearGradient id="linear-gradient-21" x1="254.67" y1="243.3" x2="317.06" y2="243.3" xlink:href="#linear-gradient-15"/><linearGradient id="linear-gradient-22" x1="240.81" y1="221.18" x2="267.35" y2="221.18" xlink:href="#linear-gradient-6"/><linearGradient id="linear-gradient-23" x1="240.81" y1="192.91" x2="267.36" y2="192.91" gradientUnits="userSpaceOnUse"><stop offset="0" stop-color="#e5bb2a"/><stop offset="1" stop-color="#fcd24a"/></linearGradient><linearGradient id="linear-gradient-24" x1="240.81" y1="213.48" x2="267.35" y2="213.48" xlink:href="#linear-gradient-15"/><linearGradient id="linear-gradient-25" x1="179.29" y1="143.13" x2="328.87" y2="143.13" xlink:href="#linear-gradient-6"/><linearGradient id="linear-gradient-26" x1="230.25" y1="143.38" x2="326.72" y2="138.84" xlink:href="#linear-gradient-15"/><linearGradient id="linear-gradient-27" x1="179.3" y1="77.67" x2="328.87" y2="77.67" xlink:href="#linear-gradient-23"/><linearGradient id="linear-gradient-28" x1="253.87" y1="46.52" x2="254.33" y2="113.87" xlink:href="#linear-gradient-6"/><linearGradient id="linear-gradient-29" x1="191.99" y1="77.97" x2="292.43" y2="78.2" xlink:href="#linear-gradient"/><linearGradient id="linear-gradient-30" x1="277.05" y1="-198.84" x2="320.7" y2="-148.44" gradientTransform="matrix(1, 0.58, 0, 1, 0, 156.43)" xlink:href="#linear-gradient-6"/><linearGradient id="linear-gradient-31" x1="189.35" y1="-197.62" x2="240.99" y2="-197.62" gradientTransform="matrix(1, 0.58, 0, 1, 0, 212.28)" gradientUnits="userSpaceOnUse"><stop offset="0" stop-color="#e5b53e"/><stop offset="1" stop-color="#caa239"/></linearGradient><linearGradient id="linear-gradient-32" x1="114.07" y1="307.97" x2="191.03" y2="307.97" xlink:href="#linear-gradient"/><linearGradient id="linear-gradient-33" x1="88.36" y1="268.99" x2="141.77" y2="268.99" gradientUnits="userSpaceOnUse"><stop offset="0" stop-color="#54c992"/><stop offset="1" stop-color="#54c992"/></linearGradient><linearGradient id="linear-gradient-34" x1="149.61" y1="271.78" x2="208.35" y2="271.78" gradientTransform="matrix(-1, 0, 0, 1, 302.16, 0)" gradientUnits="userSpaceOnUse"><stop offset="0" stop-color="#54c992"/><stop offset="1" stop-color="#d2e9e6"/></linearGradient><linearGradient id="linear-gradient-35" x1="122.56" y1="282.77" x2="160.55" y2="282.77" gradientUnits="userSpaceOnUse"><stop offset="0" stop-color="#3a4983"/><stop offset="1" stop-color="#282a55"/></linearGradient><linearGradient id="linear-gradient-36" x1="158.93" y1="293.29" x2="160.97" y2="293.29" xlink:href="#linear-gradient-35"/><linearGradient id="linear-gradient-37" x1="269.59" y1="323.74" x2="387.12" y2="323.74" xlink:href="#linear-gradient"/><linearGradient id="linear-gradient-38" x1="-1261.88" y1="307.09" x2="-1215.48" y2="307.09" gradientTransform="matrix(-1, 0, 0, 1, -920.85, 0)" gradientUnits="userSpaceOnUse"><stop offset="0" stop-color="#070707"/><stop offset="1" stop-color="#6b4c0b"/></linearGradient><linearGradient id="linear-gradient-39" x1="-1240.36" y1="334.1" x2="-1220.12" y2="334.1" gradientTransform="matrix(-1, 0, 0, 1, -920.85, 0)" gradientUnits="userSpaceOnUse"><stop offset="0.45" stop-color="#020202"/><stop offset="1" stop-color="#6b4c0b"/></linearGradient><linearGradient id="linear-gradient-40" x1="-1267.48" y1="327.09" x2="-1241.96" y2="327.09" gradientTransform="matrix(-1, 0, 0, 1, -920.85, 0)" gradientUnits="userSpaceOnUse"><stop offset="0" stop-color="#6b4c0b"/><stop offset="0.45" stop-color="#020202"/><stop offset="1" stop-color="#6b4c0b"/></linearGradient><linearGradient id="linear-gradient-41" x1="-1238.99" y1="334.94" x2="-1220.12" y2="334.94" gradientTransform="matrix(-1, 0, 0, 1, -920.85, 0)" gradientUnits="userSpaceOnUse"><stop offset="0" stop-color="#6b4c0b"/><stop offset="0.55" stop-color="#020202"/></linearGradient><linearGradient id="linear-gradient-42" x1="-978.57" y1="285.46" x2="-940.04" y2="285.46" gradientTransform="matrix(-1, 0, 0, 1, -671.09, 0)" gradientUnits="userSpaceOnUse"><stop offset="0"/><stop offset="1"/></linearGradient><linearGradient id="linear-gradient-43" x1="-1248.9" y1="318.23" x2="-1189.46" y2="318.23" xlink:href="#linear-gradient-38"/><linearGradient id="linear-gradient-44" x1="1179.57" y1="305.07" x2="1235.36" y2="305.07" gradientTransform="matrix(-1, 0, 0, 1, 1514.92, 0)" gradientUnits="userSpaceOnUse"><stop offset="0" stop-color="#86bfb4"/><stop offset="1" stop-color="#5ca4a3"/></linearGradient><linearGradient id="linear-gradient-45" x1="279.72" y1="304.06" x2="335.21" y2="304.06" xlink:href="#linear-gradient-5"/><linearGradient id="linear-gradient-46" x1="1184.95" y1="305.43" x2="1223.5" y2="305.43" gradientTransform="matrix(-1, 0, 0, 1, 1514.92, 0)" xlink:href="#linear-gradient-40"/><linearGradient id="linear-gradient-47" x1="1209.11" y1="298.61" x2="1220.46" y2="298.61" gradientTransform="matrix(-1, 0, 0, 1, 1514.92, 0)" xlink:href="#linear-gradient-40"/><linearGradient id="linear-gradient-48" x1="-967.96" y1="283.83" x2="-937.68" y2="283.83" xlink:href="#linear-gradient-42"/><linearGradient id="linear-gradient-49" x1="-989.24" y1="282.12" x2="-974.59" y2="282.12" xlink:href="#linear-gradient-42"/><linearGradient id="linear-gradient-50" x1="303.72" y1="299.45" x2="339.48" y2="299.45" xlink:href="#linear-gradient-5"/><linearGradient id="linear-gradient-51" x1="184.27" y1="312.93" x2="219.91" y2="312.93" xlink:href="#linear-gradient"/><linearGradient id="linear-gradient-52" x1="257.35" y1="867.1" x2="279.67" y2="867.1" gradientTransform="matrix(1, -0.58, 0, 1, 0, -370.52)" gradientUnits="userSpaceOnUse"><stop offset="0" stop-color="#a6d3d1"/><stop offset="1" stop-color="#d2e9e6"/></linearGradient><linearGradient id="linear-gradient-53" x1="241.66" y1="345.38" x2="273.03" y2="345.38" xlink:href="#linear-gradient-5"/><linearGradient id="linear-gradient-54" x1="241.66" y1="329.13" x2="273.03" y2="329.13" xlink:href="#linear-gradient-5"/><linearGradient id="linear-gradient-55" x1="245.87" y1="327.78" x2="274.02" y2="343.6" gradientUnits="userSpaceOnUse"><stop offset="0" stop-color="#f0f1f2"/><stop offset="0.77" stop-color="#fff"/><stop offset="1" stop-color="#fff"/></linearGradient><linearGradient id="linear-gradient-56" x1="244.37" y1="329.58" x2="270.32" y2="329.58" gradientUnits="userSpaceOnUse"><stop offset="0" stop-color="#86bfb4"/><stop offset="1" stop-color="#66b0a8"/></linearGradient><linearGradient id="linear-gradient-57" x1="245.2" y1="331.46" x2="269.49" y2="331.46" gradientUnits="userSpaceOnUse"><stop offset="0" stop-color="#6b4c0b"/><stop offset="1" stop-color="#6b4c0b"/></linearGradient><linearGradient id="linear-gradient-58" x1="256.34" y1="319.24" x2="262.55" y2="319.24" xlink:href="#linear-gradient-6"/><linearGradient id="linear-gradient-59" x1="253.59" y1="324.28" x2="257.85" y2="324.28" xlink:href="#linear-gradient-6"/><linearGradient id="linear-gradient-60" x1="-48.13" y1="130.17" x2="15.32" y2="130.17" gradientTransform="matrix(-1, 0, 0, 1, 18.7, -42.86)" gradientUnits="userSpaceOnUse"><stop offset="0" stop-color="#54c992"/><stop offset="0.05" stop-color="#54c992"/><stop offset="1" stop-color="#54c992"/></linearGradient><linearGradient id="linear-gradient-61" x1="-30.38" y1="139.99" x2="17.1" y2="139.99" xlink:href="#linear-gradient-60"/><linearGradient id="linear-gradient-62" x1="-36.73" y1="148.61" x2="-26.41" y2="148.61" gradientTransform="matrix(-1, 0, 0, 1, 18.7, -42.86)" gradientUnits="userSpaceOnUse"><stop offset="0" stop-color="#06616f"/><stop offset="1" stop-color="#54c992"/></linearGradient><linearGradient id="linear-gradient-63" x1="-38.06" y1="138.17" x2="18.7" y2="138.17" gradientTransform="matrix(-1, 0, 0, 1, 18.7, -42.86)" gradientUnits="userSpaceOnUse"><stop offset="0" stop-color="#54c992"/><stop offset="1" stop-color="#06616f"/></linearGradient></defs><title>cup-uy</title><g class="cls-1"><g id="Layer_2" data-name="Layer 2"><rect class="cls-2" x="303.78" y="206.33" width="52.31" height="27.85"/><path class="cls-3" d="M380.41,207.41v46.34c0,.41.66.86,1.56.86s1.56-.45,1.56-.86V207.41Z" transform="translate(-73.08 -42.86)"/><path class="cls-4" d="M401.8,260.52v2.66c0,6.55-10.66,13.86-24.94,13.86s-24.95-7.31-24.95-13.86v-2.7h4.51l40.88,0h4.5Z" transform="translate(-73.08 -42.86)"/><path class="cls-5" d="M400,260.52h-2.7c0,3.21-8,9.35-20.44,9.35s-20.44-6.14-20.44-9.35v0h-4.51v2.35c2.1,6,12.08,12,24.95,12s22.85-5.93,24.94-12v-2.31Z" transform="translate(-73.08 -42.86)"/><path class="cls-6" d="M401.8,260.52c0,6.54-10.66,13.86-24.94,13.86s-24.95-7.32-24.95-13.86,10.67-13.86,24.95-13.86S401.8,254,401.8,260.52Z" transform="translate(-73.08 -42.86)"/><path class="cls-7" d="M378.94,237.47c0-.6,2.38-1.9,4.39-3.21,8.33-5.4,9.85-12.44,9.87-16.83a20.08,20.08,0,0,0-.43-4.07v0c0-3.8-6.82-8.06-15.95-8.06-6.25,0-11.42,2-14.06,4.48-1.71,1.62-2.34,5.38-2.32,7.63,0,4.37,1.56,11.45,9.87,16.87,2,1.31,4.39,2.61,4.39,3.22s-2.38,1.9-4.39,3.21c-8.32,5.42-9.85,12.5-9.88,16.88,0,2.25.61,6,2.33,7.63a21.27,21.27,0,0,0,14.06,5.35c9.13,0,15.95-5.13,15.95-8.93v0a19.31,19.31,0,0,0,.43-4.08c0-4.38-1.53-11.41-9.86-16.82C381.32,239.37,378.94,238.07,378.94,237.47Z" transform="translate(-73.08 -42.86)"/><path class="cls-8" d="M380.75,248.3c-1.36-1.36-3.07-4-3.07-5.87V236.9c0-1.91,2.15-3.61,3.9-4.4a16.73,16.73,0,0,0,6.89-6.38,21.65,21.65,0,0,0,2-4,3.46,3.46,0,0,0,.15-1c0-3.63-5.91-7.68-13.83-7.68S363,217.49,363,221.12a3.46,3.46,0,0,0,.15,1,21.18,21.18,0,0,0,2,4,17.05,17.05,0,0,0,6.88,6.36c1.74.8,3.89,2.51,3.89,4.42v5.67c0,1.91-1.57,4.65-2.89,6a13.1,13.1,0,0,1-3.83,2.73,10.7,10.7,0,0,0-2.93,2.86,29.14,29.14,0,0,0-2.89,4.94,4,4,0,0,0-.42,1.72c0,3.62,5.92,7.68,13.82,7.68s13.83-4.06,13.83-7.68a4,4,0,0,0-.45-1.77c-1.06-2.71-3.95-6.64-5.51-7.74A27.11,27.11,0,0,1,380.75,248.3Z" transform="translate(-73.08 -42.86)"/><path class="cls-9" d="M384.58,248.62a14,14,0,0,1,2.19,3.76l-3.31,1.38a9.62,9.62,0,0,0-2.1-3.81Z" transform="translate(-73.08 -42.86)"/><path class="cls-9" d="M388.44,247a7.77,7.77,0,0,1,1.3,4.13l-2.25.94a14.3,14.3,0,0,0-2.23-3.76Z" transform="translate(-73.08 -42.86)"/><path class="cls-9" d="M380.69,244.66a27.1,27.1,0,0,1,3.36,3.4l-3.23,1.34c-.27-.29-.55-.57-.86-.85a17,17,0,0,0-3.16-2.28Z" transform="translate(-73.08 -42.86)"/><path class="cls-9" d="M386,244.25a12.89,12.89,0,0,1,1.93,2.2l-3.21,1.33a27.89,27.89,0,0,0-3.39-3.4l3.2-1.32A15.58,15.58,0,0,1,386,244.25Z" transform="translate(-73.08 -42.86)"/><rect class="cls-10" x="282.24" y="219.51" width="7.99" height="1.67"/><path class="cls-11" d="M353.74,211.55v51.62c0,.41.68.87,1.58.87s1.57-.46,1.57-.87V211.55Z" transform="translate(-73.08 -42.86)"/><rect class="cls-12" x="318.78" y="225.91" width="3.12" height="1.67"/><path class="cls-13" d="M390.28,218v51.62c0,.41.68.88,1.58.88s1.57-.47,1.57-.88V218Z" transform="translate(-73.08 -42.86)"/><path class="cls-14" d="M401.8,208.23v2.13c0,6.55-10.66,13.87-24.94,13.87s-24.95-7.32-24.95-13.87v-2.17h4.51l40.88,0h4.5Z" transform="translate(-73.08 -42.86)"/><path class="cls-5" d="M400,208.23h-2.7c0,3.22-8,9.36-20.44,9.36s-20.44-6.14-20.44-9.36v0h-4.51v2.35c2.1,6,12.08,12,24.95,12s22.85-5.92,24.94-12v-2.31Z" transform="translate(-73.08 -42.86)"/><path class="cls-15" d="M401.8,208.23c0,6.55-10.66,13.86-24.94,13.86s-24.95-7.31-24.95-13.86,10.67-13.85,24.95-13.85S401.8,201.69,401.8,208.23Z" transform="translate(-73.08 -42.86)"/><path class="cls-16" d="M396.83,205.78v1.7c0,5.24-8.54,11.1-20,11.1s-20-5.86-20-11.1v-1.73h3.6l32.73,0Z" transform="translate(-73.08 -42.86)"/><path class="cls-5" d="M396.83,206.28c0,5.24-8.54,11.09-20,11.09s-20-5.85-20-11.09a3.08,3.08,0,0,1,0-.53h3.57l32.73,0h3.58C396.81,205.94,396.83,206.11,396.83,206.28Z" transform="translate(-73.08 -42.86)"/><path class="cls-17" d="M396.83,205.78c0,5.24-8.54,11.09-20,11.09s-20-5.85-20-11.09,8.54-11.1,20-11.1S396.83,200.54,396.83,205.78Z" transform="translate(-73.08 -42.86)"/><polygon class="cls-18" points="338.57 251.71 336.9 252.67 335.29 253.61 275.72 287.99 178.59 287.99 178.59 190.93 233.34 190.93 245.36 197.86 338.57 251.71"/><path class="cls-19" d="M209.93,160.44a6.82,6.82,0,0,1-3.49-.95C179.87,144.16,156,102.23,162.15,58.6c1.16-8.34,6.22-11.63,9.13-12.84,14.14-5.92,38.59,11,45.74,16.34a7,7,0,0,1-8.35,11.22c-12.64-9.4-27.89-16.38-32-14.66-.29.12-.56,1.06-.67,1.88-5.76,41.18,18.94,76.17,37.44,86.85a7,7,0,0,1-3.5,13.05Z" transform="translate(-73.08 -42.86)"/><path class="cls-20" d="M336.78,280h0V256.22l-3.13.2a14.39,14.39,0,0,0-2.27-1.58l-59.22-34.21c-7.21-4.15-18.88-4.15-26.08,0L177,260.84a16.3,16.3,0,0,0-1.65,1.1l-3.75.24V286.3h0c.12,2.63,1.9,5.23,5.37,7.25l59.23,34.19c7.2,4.15,18.87,4.15,26.07,0l69.12-40.2c3.43-2,5.21-4.55,5.38-7.14h0Z" transform="translate(-73.08 -42.86)"/><path class="cls-21" d="M331.38,263.73l-69.11,40.2c-7.21,4.16-18.88,4.16-26.07,0L177,269.73c-3.9-2.25-5.67-5.26-5.35-8.21.27-2.49,2-4.93,5.35-6.84l69.13-40.2c7.19-4.15,18.86-4.15,26.07,0l59.22,34.19c3.3,1.91,5.07,4.34,5.35,6.84C337.06,258.47,335.29,261.48,331.38,263.73Z" transform="translate(-73.08 -42.86)"/><path class="cls-22" d="M336.73,255.51c-.28,2.49-2.05,4.94-5.35,6.84l-69.11,40.21c-7.21,4.16-18.88,4.16-26.07,0L177,268.36c-3.3-1.9-5.08-4.35-5.35-6.84.27-2.49,2-4.93,5.35-6.84l69.13-40.2c7.19-4.15,18.86-4.15,26.07,0l59.22,34.19C334.68,250.58,336.45,253,336.73,255.51Z" transform="translate(-73.08 -42.86)"/><path class="cls-23" d="M312.53,257.13h0V240.3l-2.22.14a11.25,11.25,0,0,0-1.6-1.12l-41.9-24.19c-5.1-2.94-13.36-2.94-18.45,0l-48.9,28.44a10.34,10.34,0,0,0-1.17.78l-2.65.17v16.79a.53.53,0,0,0,0,.13v.14h0c.08,1.86,1.35,3.69,3.8,5.12l41.9,24.19c5.1,2.94,13.35,2.94,18.45,0l48.9-28.44c2.42-1.4,3.68-3.22,3.8-5.05h0Z" transform="translate(-73.08 -42.86)"/><path class="cls-21" d="M308.71,245.61l-48.9,28.45c-5.1,2.94-13.35,2.94-18.44,0l-41.91-24.2c-2.76-1.59-4-3.72-3.78-5.81.18-1.76,1.45-3.49,3.78-4.84l48.9-28.43c5.09-2.95,13.35-2.95,18.45,0L308.71,235c2.33,1.35,3.59,3.07,3.78,4.84C312.73,241.89,311.47,244,308.71,245.61Z" transform="translate(-73.08 -42.86)"/><path class="cls-24" d="M312.48,239.81c-.18,1.75-1.44,3.48-3.77,4.82L300,249.68l-40.23,23.41c-5.1,2.93-13.35,2.93-18.44,0l-41.91-24.21c-2.34-1.34-3.6-3.07-3.78-4.82.18-1.77,1.44-3.49,3.78-4.85l48.9-28.44c5.09-2.94,13.35-2.94,18.45,0L308.71,235a9.13,9.13,0,0,1,2.43,2A5.08,5.08,0,0,1,312.48,239.81Z" transform="translate(-73.08 -42.86)"/><path class="cls-25" d="M275.27,243.6c0,1.8-1.65,4-4.62,5.79a21,21,0,0,1-2.42,1.28,34.39,34.39,0,0,1-14.05,2.75c-7.13,0-12.83-1.77-16.49-4-3-1.84-4.61-4-4.61-5.79,0-3.47,6.22-8.31,16.31-9.53a40.54,40.54,0,0,1,4.79-.27C267.05,233.8,275.27,239.61,275.27,243.6Z" transform="translate(-73.08 -42.86)"/><path class="cls-26" d="M312.48,239.81c-.18,1.75-1.44,3.48-3.77,4.82L300,249.68H255.35V236.92h55.79A5.08,5.08,0,0,1,312.48,239.81Z" transform="translate(-73.08 -42.86)"/><polygon class="cls-21" points="156.91 277.42 110.05 250.36 110.05 235.28 156.91 262.34 156.91 277.42"/><path class="cls-27" d="M267.35,192.92v50.34c0,2.52-5.16,6.18-13.27,6.18s-13.27-3.66-13.27-6.18V192.92Z" transform="translate(-73.08 -42.86)"/><path class="cls-28" d="M254.08,199.09c-8.1,0-13.27-3.66-13.27-6.17s5.17-6.18,13.27-6.18,13.28,3.66,13.28,6.18S262.18,199.09,254.08,199.09Z" transform="translate(-73.08 -42.86)"/><path class="cls-29" d="M267.35,192.92V234c-12.6-6.23-21.13-16.1-26.54-24.47V192.92Z" transform="translate(-73.08 -42.86)"/><path class="cls-30" d="M328.87,77.67s-.11,2.51-.49,6.86c-2.38,26.87-15,123.48-74.3,124.06a49.83,49.83,0,0,1-11.8-1.27C193,195.84,182,109.64,179.78,84.52c-.38-4.34-.49-6.85-.49-6.85Z" transform="translate(-73.08 -42.86)"/><path class="cls-31" d="M328.87,77.67s-.11,2.51-.49,6.86c-2.38,26.87-15,123.48-74.3,124.06a49.83,49.83,0,0,1-11.8-1.27h.12c50.09,5,71-88.91,36.73-85.79s-71.3-17.33-71.3-17.33l-1.75-15.85,10.18-10.69Z" transform="translate(-73.08 -42.86)"/><path class="cls-32" d="M328.87,77.67s-.11,2.51-.49,6.86c-7.22,13.75-34.65,29.33-74.3,29.33S187,98.28,179.78,84.52c-.38-4.34-.49-6.85-.49-6.85Z" transform="translate(-73.08 -42.86)"/><path class="cls-33" d="M254.09,112.47c-45.67,0-74.79-20.61-74.79-34.8s29.12-34.81,74.79-34.81,74.78,20.62,74.78,34.81S299.74,112.47,254.09,112.47Z" transform="translate(-73.08 -42.86)"/><path class="cls-32" d="M254.09,108.33c-26.57,0-43.18-7.78-50.72-12.43-9-5.56-14.4-12.38-14.4-18.24C189,65.16,214.34,47,254.09,47s65.1,18.15,65.1,30.65c0,5.83-5.39,12.65-14.42,18.24C297.25,100.55,280.68,108.33,254.09,108.33Z" transform="translate(-73.08 -42.86)"/><path class="cls-34" d="M318.49,77.65c0,5.5-5,12-14.09,17.66a62.35,62.35,0,0,1-7.4,3.91c-10.87,4.94-25.5,8.41-42.91,8.41-21.75,0-39.16-5.42-50.34-12.32-9.08-5.61-14.08-12.19-14.08-17.66,0-10.61,19-25.42,49.81-29.09a121.5,121.5,0,0,1,14.61-.86C293.4,47.7,318.49,65.45,318.49,77.65Z" transform="translate(-73.08 -42.86)"/><path class="cls-35" d="M297,99.22c-10.87,4.94-25.5,8.41-42.91,8.41-21.75,0-39.16-5.42-50.34-12.32-9.08-5.61-14.08-12.19-14.08-17.66,0-10.61,19-25.42,49.81-29.09,32.9,6,56.78,21.15,61.25,36.71C302.22,90.4,300.64,95.07,297,99.22Z" transform="translate(-73.08 -42.86)"/><path class="cls-36" d="M294.59,199.65a31.71,31.71,0,0,1-15.83-4.58,7,7,0,1,1,7-12.11c5.61,3.24,10.43,3.59,14.77,1.09,9.28-5.36,15.28-23,15.28-44.83,0-7.35-7.68-13.08-14.12-16.59-3.39-1.84-4.16-5.66-2.31-9s5.61-5.07,9-3.23c17.7,9.65,21.42,21,21.42,28.87,0,27.61-8.32,48.89-22.27,56.94A25.56,25.56,0,0,1,294.59,199.65Z" transform="translate(-73.08 -42.86)"/><path class="cls-37" d="M215.56,114.75,223,134.09a3.69,3.69,0,0,0,1.11,1.45l16.6,12c.42.3.37.71-.12.9L229.23,153a1.25,1.25,0,0,0-.74,1.29l2.8,18c.09.52-.13.62-.49.24L215.86,156a2.64,2.64,0,0,0-1.58-.75L200,154.46a.79.79,0,0,1-.77-1l2.74-14.41a2.68,2.68,0,0,0-.34-1.73l-12.09-18.77c-.29-.44-.12-.63.36-.42l16.39,7.08a1.21,1.21,0,0,0,1.41-.41l7-10.19C215,114.21,215.37,114.26,215.56,114.75Z" transform="translate(-73.08 -42.86)"/><path class="cls-38" d="M191,308c0,7.66-17.23,13.88-38.48,13.88s-38.48-6.22-38.48-13.88,17.23-13.88,38.48-13.88S191,300.3,191,308Z" transform="translate(-73.08 -42.86)"/><path class="cls-39" d="M141.77,234.13l-.51,1-36.69,73-.49,1-4.14-2.39-1-.57-.1-.05h0c-11.87-6.91-14-27.56-4.68-48.16,7.89-17.41,21.46-29.13,33.76-29.13a17.18,17.18,0,0,1,7.13,1.51,16.63,16.63,0,0,1,2,1.08l.47.27Z" transform="translate(-73.08 -42.86)"/><path class="cls-9" d="M141.77,234.13l-.51,1-36.69,73-.49,1-4.14-2.39c-8.6-9.05-9.36-27.53-1-45.95,8-17.69,21.85-29.58,34.46-29.58a18.38,18.38,0,0,1,4.14.47Z" transform="translate(-73.08 -42.86)"/><path class="cls-40" d="M113,311.57c12.31,0,25.88-11.71,33.77-29.12,9.72-21.47,7-43-6.22-48.95a17.2,17.2,0,0,0-7.14-1.52c-12.3,0-25.87,11.71-33.76,29.13-9.72,21.46-7,43,6.22,48.95A17.18,17.18,0,0,0,113,311.57Z" transform="translate(-73.08 -42.86)"/><path class="cls-41" d="M137.21,241a13.91,13.91,0,0,0-5.78-1.23c-10,0-20.93,9.48-27.31,23.57-7.87,17.36-5.66,34.77,5,39.6a13.9,13.9,0,0,0,5.78,1.22c9.95,0,20.93-9.47,27.31-23.56C150.1,263.23,147.89,245.84,137.21,241Zm-.57,37.06c-4.5,10-12.26,16.64-19.29,16.64a10,10,0,0,1-4.08-.85c-7.55-3.42-9.1-15.71-3.55-28,4.51-10,12.26-16.64,19.29-16.64a9.89,9.89,0,0,1,4.08.86C140.63,253.51,142.19,265.8,136.64,278.06Z" transform="translate(-73.08 -42.86)"/><path class="cls-41" d="M129.57,257.84a6.3,6.3,0,0,0-2.63-.56c-4.53,0-9.54,4.33-12.45,10.75-3.59,7.92-2.58,15.86,2.29,18.06a6.35,6.35,0,0,0,2.64.56c4.53,0,9.54-4.32,12.45-10.75C135.46,268,134.45,260.05,129.57,257.84ZM128,274.13c-1.6,3.52-4.35,5.89-6.84,5.89a3.67,3.67,0,0,1-1.44-.3c-2.67-1.22-3.23-5.57-1.26-9.91,1.6-3.53,4.35-5.89,6.83-5.89a3.47,3.47,0,0,1,1.44.3C129.36,265.43,129.91,269.78,128,274.13Z" transform="translate(-73.08 -42.86)"/><path class="cls-42" d="M122.44,274.85a3.18,3.18,0,0,0,2.45-2.11c.7-1.56.5-3.12-.45-3.55a1.31,1.31,0,0,0-.52-.11,3.17,3.17,0,0,0-2.45,2.11c-.71,1.56-.51,3.12.45,3.55A1.27,1.27,0,0,0,122.44,274.85Z" transform="translate(-73.08 -42.86)"/><path class="cls-42" d="M160.5,297.87l-10.07-5.77a1.21,1.21,0,0,1-.45-.55l-.92-2.66c-.07-.2,0-.28.2-.17l10.07,5.77a1.13,1.13,0,0,1,.46.55l.92,2.66C160.78,297.9,160.69,298,160.5,297.87Z" transform="translate(-73.08 -42.86)"/><path class="cls-43" d="M160.55,292l-1.2,2.66-.44-.26L123,273.63c-.46-.21-.56-1-.22-1.71a1.52,1.52,0,0,1,1.18-1,.64.64,0,0,1,.24,0l36,20.81Z" transform="translate(-73.08 -42.86)"/><path class="cls-5" d="M160.55,292l-1.2,2.66-.44-.26a.74.74,0,0,1-.12-.36,2.15,2.15,0,0,1,.2-1.14,1.71,1.71,0,0,1,1.23-1.09Z" transform="translate(-73.08 -42.86)"/><path class="cls-44" d="M159.6,294.68a1.52,1.52,0,0,0,1.17-1c.34-.75.25-1.5-.21-1.71a.74.74,0,0,0-.25,0,1.53,1.53,0,0,0-1.18,1c-.34.75-.24,1.5.22,1.71A.66.66,0,0,0,159.6,294.68Z" transform="translate(-73.08 -42.86)"/><path class="cls-42" d="M159.59,291.66l-9.34-5.32c-.18-.11-.16-.23,0-.26l4.19-.8a1.14,1.14,0,0,1,.7.12l9.34,5.32c.18.11.16.22,0,.26l-4.18.8A1.24,1.24,0,0,1,159.59,291.66Z" transform="translate(-73.08 -42.86)"/><path class="cls-45" d="M387.12,303H276.76s-19.05,11,5,29.25c12.9,9.81,35,12.24,35,12.24h70.34Z" transform="translate(-73.08 -42.86)"/><path class="cls-46" d="M300.32,295.77S325.55,286,329.65,286s14.74,2.89,10.34,10.79-27.36,31.31-27.36,31.31-7.13-2.28-7.51-4.71,7.25-14.78,7.25-14.78-14.63,5.29-17.21,3S300.32,295.77,300.32,295.77Z" transform="translate(-73.08 -42.86)"/><path class="cls-47" d="M306.22,338c4.52,4.18,8.5,7.28,11.12,6.45,0,0,0,0,0,0a3.63,3.63,0,0,0,.91-.48v0a3.57,3.57,0,0,0,.88-1c2.33-4-7.78-17.91-7.78-17.91s1-2.89-7.59,0a3,3,0,0,0-.29.11,7.61,7.61,0,0,0-.78.29C295.66,328.22,300.74,332.89,306.22,338Z" transform="translate(-73.08 -42.86)"/><path class="cls-48" d="M322.79,329.18s6.34,2,8.09,3.05a17.94,17.94,0,0,0,10.86,2c4.51-.7,6.52-5.8,3.34-8.64s-20.3-7.35-21.72-5.43S319.41,328.07,322.79,329.18Z" transform="translate(-73.08 -42.86)"/><path class="cls-49" d="M306.22,338c4.52,4.18,8.5,7.28,11.12,6.45,0,0,0,0,0,0a3.63,3.63,0,0,0,.91-.48v0a2.83,2.83,0,0,0-.08-2.54c-1.58-3.58-9-15.1-14.7-16.3a7.61,7.61,0,0,0-.78.29C295.66,328.22,300.74,332.89,306.22,338Z" transform="translate(-73.08 -42.86)"/><path class="cls-50" d="M306.22,338c4.52,4.18,8.5,7.28,11.12,6.45,0,0,0,0,0,0a2.22,2.22,0,0,0,.45-2.89c-1.57-3.58-9.51-15.93-15.1-16.17C295.66,328.22,300.74,332.89,306.22,338Z" transform="translate(-73.08 -42.86)"/><path class="cls-51" d="M269.16,310.79a2.18,2.18,0,0,0,.57,1s.24-1.23.33-1.53c0,0,0-.05,0-.07s0,0,.05,0a28.19,28.19,0,0,0,7.35,4.19l.51.19a3.54,3.54,0,0,1,.49.18,20.27,20.27,0,0,0,9.58.75,21.92,21.92,0,0,0,2.54-.56v0a20.24,20.24,0,0,0,5.23-2.32,15.44,15.44,0,0,0,2.55-1.86s.74-2,1.78-5.27,2.32-7.58,3.57-12.43c.3-1.18.6-2.4.88-3.61.05-.22.1-.46.16-.68.52-2.32,1-4.7,1.42-7.05,1.79-10.18,2.16-20.12-1.86-24.25l-.09-.09a5.56,5.56,0,0,0-1.53-1.14h0a5.93,5.93,0,0,0-1.35-.53,17.81,17.81,0,0,0-2.89-.47h0a27.52,27.52,0,0,0-4.45,0,38.28,38.28,0,0,0-5,.67h0c-5.19,1-10.3,2.93-13.1,5.41v0A3.77,3.77,0,0,0,275,263a29.6,29.6,0,0,0-.93,5,.57.57,0,0,1,0,.12c-.09.67-.16,1.35-.24,2.08v0c-.6,6.07-1,14.22-2.06,21.61-.07.47-.12.91-.21,1.39-.21,1.51-.49,3-.79,4.34-.11.51-.19,1-.3,1.53C269.5,303.88,268.51,308.6,269.16,310.79Z" transform="translate(-73.08 -42.86)"/><path class="cls-52" d="M299,255.79s-2.14,4.42-3.57,4.93c-1.85.67-5.95-1.22-6.52-4.59l2.8-8.44Z" transform="translate(-73.08 -42.86)"/><path class="cls-53" d="M304.29,230.17c3.71,1.89,6.54,9.63,3.72,17.11-3.54,9.42-8.66,13.65-13.53,8.47-3.49-3.72-7.06-8-2.74-20.26C293.89,229.39,301.19,228.59,304.29,230.17Z" transform="translate(-73.08 -42.86)"/><path class="cls-49" d="M305.3,226.36c3.82,1.68,6.37,6.77,6.94,10.8.2.81.12,2.16,3.81,2.05,0,0-3.62,8.4-12.84,6-3.72-1-5.1-2.3-5.42-3.54a6.86,6.86,0,0,1-.61-.68c-2.5,2-2.4,6.71-2.4,6.71l-1.17.31c-.78-.49-1-3-1-3l-2.72.33c-2.33-6.2.12-14.37.12-14.37C290.32,226,297.94,223.1,305.3,226.36Z" transform="translate(-73.08 -42.86)"/><path class="cls-53" d="M292.63,245s1.48-5.9-1.59-6.06-2.41,8.07.87,7.34Z" transform="translate(-73.08 -42.86)"/><path class="cls-54" d="M278.49,314.76v0c-.33-.11-.65-.24-1-.38a51.7,51.7,0,0,1-7.36-4.22l-.06,0s-.23,2.13-.24,2.11c-1.73-1.54-.28-8.54.9-14.59.3-1.39.57-2.84.79-4.35.09-.48.14-.92.22-1.38,1-7.39,1.44-15.55,2.05-21.62v0c.32-3.09.61-4.93,2.15-5.62,2.8-1.25,8.25.42,8.45,2.82C285.12,276.81,281,310.62,278.49,314.76Z" transform="translate(-73.08 -42.86)"/><path class="cls-55" d="M326.79,320.45s1.67,1.34,1.17,5.35-6.85,3.34-8.19,3.51-32.75,1.37-35.25.68-15.91-8.33-15.91-16.83c0-5.76,2.42-6.91,9.39-6.91,7.35,0,15.7,9.35,19.54,9.19S326.79,320.45,326.79,320.45Z" transform="translate(-73.08 -42.86)"/><path class="cls-56" d="M279.56,307h0a1.42,1.42,0,0,0,.66,1.15l21.91,12.58a2.67,2.67,0,0,0,2.4,0l30.18-17.42a1.31,1.31,0,0,0,.64-1.12,1.42,1.42,0,0,0-.55-1.2l-22-11.64a2.63,2.63,0,0,0-2.41,0L280,305.9A1.32,1.32,0,0,0,279.56,307Z" transform="translate(-73.08 -42.86)"/><path class="cls-9" d="M279.56,307h0a1.53,1.53,0,0,0,.5.43L302,320a2.84,2.84,0,0,0,1.37.34,2.81,2.81,0,0,0,1.37-.34l30.18-17.4a1.6,1.6,0,0,0,.47-.41,1.42,1.42,0,0,0-.55-1.2l-22-11.64a2.63,2.63,0,0,0-2.41,0L280,305.9A1.32,1.32,0,0,0,279.56,307Z" transform="translate(-73.08 -42.86)"/><path class="cls-57" d="M304.54,319.75l30.17-17.41c.67-.38.67-1,0-1.39L312.8,288.38a2.63,2.63,0,0,0-2.41,0l-30.18,17.4a.74.74,0,0,0,0,1.4l21.92,12.57A2.63,2.63,0,0,0,304.54,319.75Z" transform="translate(-73.08 -42.86)"/><path class="cls-58" d="M305.57,316.33l24-13.85a.59.59,0,0,0,0-1.11l-11.84-6.84a2.08,2.08,0,0,0-1.91,0l-24,13.84a.59.59,0,0,0,0,1.11l11.83,6.85A2.16,2.16,0,0,0,305.57,316.33Z" transform="translate(-73.08 -42.86)"/><path class="cls-59" d="M298.62,301.82l7.07-4.08a.17.17,0,0,0,0-.32l-3.49-2a.61.61,0,0,0-.56,0l-7.07,4.08c-.16.09-.16.23,0,.32l3.49,2A.61.61,0,0,0,298.62,301.82Z" transform="translate(-73.08 -42.86)"/><path class="cls-53" d="M294.12,302.2a6.42,6.42,0,0,1,3.49-1.23c1.61.13,5.12-.82,5,.65s-3.15,1.39-2.59,1.77,8.53,2.58,8.34,3.55-1.39.91-1.39.91,2,.92,1.83,1.74-1.05,1-2,.73c0,0,.8,1.6-1.91,1.09,0,0,.22.77-1.69.55s-7.59-1.36-10.52-5.42C292.61,306.54,293.18,302.68,294.12,302.2Z" transform="translate(-73.08 -42.86)"/><path class="cls-60" d="M279.85,290.17s7.94-24.7,2.85-27.64-8.27-2.31-10.47,9-8.05,26.75-4.54,27.66,23,8.54,26.77,7.26c1.28-.43,3.4-3.22,1.89-4.83-2.43-2.59-13.31-8.58-16.92-9.83Z" transform="translate(-73.08 -42.86)"/><path class="cls-61" d="M303.5,292.35a78.14,78.14,0,0,0,11.16,5.59,6.15,6.15,0,0,0,1.06-.54,4.8,4.8,0,0,0,2.42-4.22L307.4,282.87h0c.16-1.76,1-11.36,0-16.56a79.12,79.12,0,0,1-1.16,15.4c-.39,2.26-.86,4.53-1.37,6.76,0,.13,0,.22-.05.29-.06.22-.11.46-.16.68C304.33,290.64,304.27,291.72,303.5,292.35Z" transform="translate(-73.08 -42.86)"/><path class="cls-54" d="M303.5,292.35a78.14,78.14,0,0,0,11.16,5.59,6.15,6.15,0,0,0,1.06-.54,80.1,80.1,0,0,0-8.27-6.42c-.54-.28-.4-4-.05-8.11h0c.16-1.76,1-11.36,0-16.56a79.12,79.12,0,0,1-1.16,15.4c-.39,2.26-.86,4.53-1.37,6.76,0,.13,0,.22-.05.29-.06.22-.11.46-.16.68C304.33,290.64,304.27,291.72,303.5,292.35Z" transform="translate(-73.08 -42.86)"/><path class="cls-62" d="M304.88,319.65l29.05-16.77a4,4,0,0,0,1.71-2.43L339.45,280c.16-.89-.34-1.24-1.12-.79L309.28,296a4,4,0,0,0-1.72,2.43l-3.81,20.42C303.59,319.75,304.09,320.1,304.88,319.65Z" transform="translate(-73.08 -42.86)"/><path d="M320.91,299.94c0,1.26,1,1.69,2.29,1a4.77,4.77,0,0,0,2.29-3.61c0-1.26-1-1.69-2.29-1A4.73,4.73,0,0,0,320.91,299.94Z" transform="translate(-73.08 -42.86)"/><rect class="cls-63" x="184.27" y="307.09" width="35.64" height="11.66"/><path class="cls-64" d="M262.85,356c-2.74,0-5.5-2-5.5-6.54v-5.11a16.17,16.17,0,0,1,7.41-12.85l5.57-3.21a7.66,7.66,0,0,1,3.84-1.14c2.74,0,5.5,2,5.5,6.54v5.11a16.17,16.17,0,0,1-7.41,12.85l-5.57,3.21A7.66,7.66,0,0,1,262.85,356Zm11.32-25a4,4,0,0,0-1.91.62l-5.57,3.22a12.31,12.31,0,0,0-5.48,9.5v5.11c0,1,.21,2.68,1.64,2.68a4,4,0,0,0,1.91-.63l5.57-3.21a12.33,12.33,0,0,0,5.48-9.5v-5.11C275.81,332.66,275.6,331,274.17,331Z" transform="translate(-73.08 -42.86)"/><path class="cls-65" d="M273,354.27v.16h0a2.75,2.75,0,0,1-.28,1.07c-1.3,2.82-7,6.12-15.39,6.12-9.56,0-15.66-4.3-15.69-7.28h0v0h0V329.13H273Z" transform="translate(-73.08 -42.86)"/><path class="cls-66" d="M257.35,336.43c-9.58,0-15.69-4.33-15.69-7.3s6.11-7.3,15.69-7.3,15.68,4.32,15.68,7.3S266.92,336.43,257.35,336.43Z" transform="translate(-73.08 -42.86)"/><path class="cls-67" d="M273,354.27v.16h0a2.75,2.75,0,0,1-.28,1.07c-27.54-9.71-28.34-25.6-28.34-25.6l5,0,1.85-.75H273Z" transform="translate(-73.08 -42.86)"/><path class="cls-68" d="M270.32,329.57a3,3,0,0,1-.83,1.89c-1.74,2.08-6.11,4.15-12.14,4.15s-10.41-2.07-12.15-4.15a3.08,3.08,0,0,1-.83-1.89c0-2.46,5-6,13-6S270.32,327.11,270.32,329.57Z" transform="translate(-73.08 -42.86)"/><path class="cls-69" d="M269.49,331.46c-1.74,2.08-6.11,4.15-12.14,4.15s-10.41-2.07-12.15-4.15c1.75-2.07,6.12-4.14,12.15-4.14S267.75,329.39,269.49,331.46Z" transform="translate(-73.08 -42.86)"/><path class="cls-70" d="M256.44,315.57a4.7,4.7,0,0,1,.21-.86,4.6,4.6,0,0,1,.29-.76,4.09,4.09,0,0,1,.34-.66,5.94,5.94,0,0,1,.75-1,5.59,5.59,0,0,1,.71-.69,4.89,4.89,0,0,1,.52-.38l.2-.11s0,.3.08.84c0,.26,0,.56.08.9,0,.17,0,.34.05.52a5.17,5.17,0,0,0,.07.55,5.77,5.77,0,0,0,.08.58,2.89,2.89,0,0,1,0,.29l.06.29a2.8,2.8,0,0,1,.06.28c0,.1,0,.19.07.28s.11.37.16.55a6.7,6.7,0,0,0,.41,1,7.44,7.44,0,0,0,.52.85l0,0v0l.1.14,0,0,.11.17.21.34c0,.07.07.1.12.19l.14.29c.09.19.18.38.26.57a3.66,3.66,0,0,1,.17.54l.12.53a7.36,7.36,0,0,1,.11,1,7.68,7.68,0,0,1-.05,1,7.76,7.76,0,0,1-.19.89,7.28,7.28,0,0,1-.61,1.46,6.34,6.34,0,0,1-1.49,1.74c-.22.17-.42.28-.54.36a1.37,1.37,0,0,1-.21.11s0-.31,0-.85c0-.24,0-.54-.07-.89s-.06-.69-.12-1.06-.12-.75-.2-1.12c0-.19-.11-.37-.15-.55a5.08,5.08,0,0,1-.17-.51c-.09-.16-.14-.33-.22-.48l-.12-.22a.71.71,0,0,0-.11-.2s-.06-.1-.09-.14a.3.3,0,0,1,0-.08.92.92,0,0,0-.11-.15l-.23-.33-.18-.26a7.9,7.9,0,0,1-.58-1c-.08-.17-.15-.34-.22-.51a2.47,2.47,0,0,1-.18-.52,6.51,6.51,0,0,1-.28-2.06A5.76,5.76,0,0,1,256.44,315.57Z" transform="translate(-73.08 -42.86)"/><path class="cls-71" d="M253.61,322.19a3.16,3.16,0,0,1,.09-.55,3.37,3.37,0,0,1,.33-.91,3.76,3.76,0,0,1,.83-1.14,2.17,2.17,0,0,1,.44-.33l.11.52c0,.15.06.33.11.55s.08.42.14.65.05.23.09.35a6.72,6.72,0,0,0,.22.68,1.79,1.79,0,0,0,.13.32,3.77,3.77,0,0,0,.65,1l0,0h0l.08.1.08.1.15.2a.72.72,0,0,1,.07.11l.11.17.19.35a4,4,0,0,1,.36,1.29,4.16,4.16,0,0,1,0,.61,4.76,4.76,0,0,1-.07.56,4,4,0,0,1-.32.94,3.77,3.77,0,0,1-.85,1.14,3.12,3.12,0,0,1-.45.33s0-.19-.1-.53a11.72,11.72,0,0,0-.25-1.19c-.05-.22-.12-.45-.19-.67l-.12-.32a2,2,0,0,1-.14-.3c-.06-.09-.11-.19-.16-.27s-.11-.19-.16-.24a.27.27,0,0,1-.07-.08s0,0,0,0l-.07-.08-.16-.19-.13-.15a4.13,4.13,0,0,1-.71-1.19,3.19,3.19,0,0,1-.19-.65,2.72,2.72,0,0,1-.08-.63A2.9,2.9,0,0,1,253.61,322.19Z" transform="translate(-73.08 -42.86)"/><polygon class="cls-72" points="0 80.23 56.75 94.59 57.26 94.12 66.83 85.39 3.38 80.5 0 80.23"/><polygon class="cls-73" points="3.38 80.5 57.26 94.12 66.83 85.39 3.38 80.5"/><polygon class="cls-72" points="0 80.23 1.6 81.64 37.02 112.61 45.1 105.23 49.07 101.6 49.62 101.1 0 80.23"/><polygon class="cls-74" points="1.6 81.64 37.02 112.61 45.1 105.23 49.07 101.6 1.6 81.64"/><polygon class="cls-75" points="45.1 105.23 55.42 110.38 49.62 101.1 49.08 101.6 45.1 105.23"/><polygon class="cls-76" points="56.75 94.59 0 80.23 49.62 101.1 55.42 110.38 56.75 94.59"/><path class="cls-5" d="M132,155.11a.75.75,0,0,0,.3-1.43l-.66-.3a.75.75,0,0,0-1,.36.74.74,0,0,0,.36,1l.69.31A.66.66,0,0,0,132,155.11Z" transform="translate(-73.08 -42.86)"/><path class="cls-5" d="M215.37,174a.75.75,0,1,1,0-1.49h1.47a.75.75,0,0,1,0,1.49h-1.48Zm-7.36-.28-1.47-.12a.75.75,0,0,1-.68-.81.74.74,0,0,1,.8-.68l1.45.11a.75.75,0,0,1,.69.8.74.74,0,0,1-.74.7Zm-8.8-1.06-1.46-.28a.74.74,0,0,1,.29-1.46l1.43.27a.73.73,0,0,1,.6.86.75.75,0,0,1-.73.62Zm-8.63-2.2c-.48-.16-.94-.34-1.39-.52a.73.73,0,0,1-.43-1,.76.76,0,0,1,.65-.48.77.77,0,0,1,.51-.22c.49,0,1,0,1.45,0a.74.74,0,0,1,.2,1.47.59.59,0,0,1,0,.29.74.74,0,0,1-.7.51A.79.79,0,0,1,190.58,170.43Zm-8-1-1.47-.14a.75.75,0,0,1-.67-.82.73.73,0,0,1,.82-.66l1.45.13a.75.75,0,0,1,.68.81.74.74,0,0,1-.74.68Zm15.39-1.27a.75.75,0,0,1,.57-.89c.47-.1.93-.21,1.39-.33a.75.75,0,0,1,.38,1.45c-.48.12-1,.24-1.46.34l-.15,0A.74.74,0,0,1,197.94,168.21Zm-24.17.1-1.46-.26a.75.75,0,0,1-.59-.88.74.74,0,0,1,.87-.59l1.43.26a.75.75,0,0,1-.12,1.48Zm8.8-1.9q-.63-.45-1.2-.93a.75.75,0,1,1,.95-1.15c.36.3.73.59,1.12.86a.75.75,0,1,1-.87,1.22Zm-17.46.07-1.43-.35a.75.75,0,0,1,.37-1.45l1.41.35a.75.75,0,0,1,.55.9.73.73,0,0,1-.72.57A.55.55,0,0,1,165.11,166.48Zm41.07-1.22a.74.74,0,0,1,.2-1c.39-.27.77-.55,1.11-.83a.75.75,0,1,1,1,1.15c-.39.32-.8.62-1.24.92a.75.75,0,0,1-.41.12A.73.73,0,0,1,206.18,165.26Zm-49.59-1.09-1.41-.43a.74.74,0,1,1,.44-1.42l1.39.42a.75.75,0,0,1,.51.93.75.75,0,0,1-.93.5Zm-8.41-2.71-1.39-.48a.75.75,0,0,1,.5-1.41l1.38.48a.74.74,0,0,1,.46.95.75.75,0,0,1-.95.46Zm28.52-2a14.83,14.83,0,0,1-.54-1.45.75.75,0,0,1,.5-.93.73.73,0,0,1,.93.49q.21.66.48,1.29a.75.75,0,0,1-.38,1,.66.66,0,0,1-.3.07A.75.75,0,0,1,176.7,159.49Zm35.05-.81a.75.75,0,0,1-.53-.92,9.63,9.63,0,0,0,.27-1.34.75.75,0,1,1,1.48.2,12.55,12.55,0,0,1-.31,1.53.76.76,0,0,1-.72.56Zm-71.85-.26-1.38-.54a.74.74,0,0,1-.41-1,.75.75,0,0,1,1-.42l1.36.54a.75.75,0,0,1-.27,1.44A.76.76,0,0,1,139.9,158.42Zm36.71-7.11a.74.74,0,0,1-.52-.91c.13-.49.29-1,.47-1.46a.75.75,0,0,1,1.4.52c-.16.44-.31.88-.43,1.33a.75.75,0,0,1-.72.55Zm33.93-1.69c-.17-.43-.36-.86-.57-1.28a.75.75,0,0,1,1.34-.66c.23.46.44.93.62,1.39a.74.74,0,0,1-.42,1,.86.86,0,0,1-.27.05A.76.76,0,0,1,210.54,149.62Zm-29.84-6a.75.75,0,0,1,0-1.06c.35-.36.72-.71,1.1-1a.75.75,0,0,1,1,1.13c-.35.3-.7.63-1,1a.74.74,0,0,1-1.05,0Zm25-.88c-.35-.32-.71-.62-1.07-.91a.75.75,0,0,1-.13-1.05.74.74,0,0,1,1.05-.12c.4.31.79.64,1.16,1a.73.73,0,0,1,0,1,.75.75,0,0,1-.55.24A.77.77,0,0,1,205.73,142.75Zm-17.88-4.12a.76.76,0,0,1,.45-1c.49-.17,1-.32,1.46-.45a.75.75,0,1,1,.39,1.44q-.68.18-1.35.42a.69.69,0,0,1-.25,0A.75.75,0,0,1,187.85,138.63Zm10.6,0c-.37-.1-.73-.19-1.1-.26l-.27,0a.75.75,0,1,1,.27-1.47l.28,0c.41.08.81.18,1.21.29a.75.75,0,0,1,.53.91.76.76,0,0,1-.72.56A1.2,1.2,0,0,1,198.45,138.65Z" transform="translate(-73.08 -42.86)"/><path class="cls-5" d="M224.25,173.78h0l.74,0a.75.75,0,0,0,.71-.78.73.73,0,0,0-.78-.71l-.75,0a.75.75,0,0,0,0,1.49Z" transform="translate(-73.08 -42.86)"/></g></g></svg>