<svg id="Capa_1" data-name="Capa 1" xmlns="http://www.w3.org/2000/svg" viewBox="0 0 220 220"><defs><style>.cls-1{fill:#ddd;}.cls-2{opacity:0.75;}.cls-3{fill:#ddd;}.cls-4{fill:#ddd;}</style></defs><title>logo_c</title><path class="cls-1" d="M102.3,146.56l.83-.84A11.88,11.88,0,0,1,99,152.19C99.31,149.84,101.31,148.49,102.3,146.56Z"/><path class="cls-1" d="M90.27,34.47c0,.21,0,.41-.07.62a72.44,72.44,0,0,1-5.46-8.48C87.11,28.86,88.51,31.79,90.27,34.47Z"/><path class="cls-1" d="M85.7,190.13V191c-.31.79-.23,2-1.63,1.67Z"/><path class="cls-1" d="M103.18,145c0-.94,0-1.89,0-2.83C103.68,143.13,104.09,144.08,103.18,145Z"/><path class="cls-1" d="M88.61,187.66A2.41,2.41,0,0,1,89.86,186,2.41,2.41,0,0,1,88.61,187.66Z"/><path class="cls-1" d="M99.82,141.17c-1.25.51-1.59-.19-1.66-1.25A3.6,3.6,0,0,1,99.82,141.17Z"/><path class="cls-1" d="M76.16,32a5.24,5.24,0,0,1,2.07,3.32h0c-2.12-.1-2.91-1.37-2.07-3.32Z"/><g class="cls-2"><path class="cls-3" d="M183.05,202.24a.09.09,0,0,1,0-.05c0-.42.2-.82.17-1.25-.3-.72,0-1.54-.38-2.23l-3.7-5.8h0a50.67,50.67,0,0,0-5.85-9.07c-3.51-5.37-6.56-11-10.39-16.19q-3.67-5.76-7.35-11.52c-1.78-2.75-3.48-3.29-6.5-2.1a42.68,42.68,0,0,1-11.23,2.78,44.12,44.12,0,0,1-21.35-2.89c-2.7-1.07-4.45-.47-6,2-2.46,3.75-4.87,7.53-7.29,11.3a149.84,149.84,0,0,0-8.27,12.88c-3.28,4.55-6.23,9.32-9.19,14.08a.58.58,0,0,0-.11.67l0,0c-.48.62-.61,1.54-1.49,1.83a5.32,5.32,0,0,0-1.67,4.56h0a4.08,4.08,0,0,0,2.22,4.34,80.79,80.79,0,0,0,19.59,7.77h0a5.49,5.49,0,0,0,2.13.75,104,104,0,0,0,41.11,2.41,101.26,101.26,0,0,0,32.83-10.38c1.52-.79,2.84-1.74,3-3.66C183.19,202.3,183.12,202.23,183.05,202.24Z"/></g><path class="cls-4" d="M183.05,198.24a.09.09,0,0,1,0-.05c0-.42.2-.82.17-1.25-.3-.72,0-1.54-.38-2.23l-3.7-5.8h0a50.67,50.67,0,0,0-5.85-9.07c-3.51-5.37-6.56-11-10.39-16.19q-3.67-5.76-7.35-11.52c-1.78-2.75-3.48-3.29-6.5-2.1a42.68,42.68,0,0,1-11.23,2.78,44.12,44.12,0,0,1-21.35-2.89c-2.7-1.07-4.45-.47-6,2-2.46,3.75-4.87,7.53-7.29,11.3a149.84,149.84,0,0,0-8.27,12.88c-3.28,4.55-6.23,9.32-9.19,14.08a.58.58,0,0,0-.11.67l0,0c-.48.62-.61,1.54-1.49,1.83a5.32,5.32,0,0,0-1.67,4.56h0a4.08,4.08,0,0,0,2.22,4.34,80.79,80.79,0,0,0,19.59,7.77h0a5.49,5.49,0,0,0,2.13.75,104,104,0,0,0,41.11,2.41,101.26,101.26,0,0,0,32.83-10.38c1.52-.79,2.84-1.74,3-3.66C183.19,198.3,183.12,198.23,183.05,198.24Z"/><g class="cls-2"><path class="cls-3" d="M103.16,75.78c-1.81-3.43-4.09-6.56-6.19-9.8C89.86,55.07,82.68,44.22,75.62,33.29c-1.81-2.8-5.89-3.71-7.8-1.53a95.31,95.31,0,0,0-19.06,20,100.12,100.12,0,0,0-16.13,33.4,101.6,101.6,0,0,0-3.22,17.3C29,106.53,31,109,34.76,109q25,0,50,0c2.63,0,4.12-1.24,4.62-3.84a43.83,43.83,0,0,1,12.7-23.51A4.76,4.76,0,0,0,103.16,75.78Z"/></g><path class="cls-4" d="M103.16,71.78c-1.81-3.43-4.09-6.56-6.19-9.8C89.86,51.07,82.68,40.22,75.62,29.29c-1.81-2.8-5.89-3.71-7.8-1.53a95.31,95.31,0,0,0-19.06,20,100.12,100.12,0,0,0-16.13,33.4,101.6,101.6,0,0,0-3.22,17.3C29,102.53,31,105,34.76,105q25,0,50,0c2.63,0,4.12-1.24,4.62-3.84a43.83,43.83,0,0,1,12.7-23.51A4.76,4.76,0,0,0,103.16,71.78Z"/><g class="cls-2"><path class="cls-3" d="M103.19,146.19a2.94,2.94,0,0,0-.46-.88,52.73,52.73,0,0,1-10-13.45,61.24,61.24,0,0,1-3.28-10.23c-.61-3.28-1.91-4.39-5.19-4.39q-24.58,0-49.17,0a3.61,3.61,0,0,0-2.58.48A3.84,3.84,0,0,0,29.63,121a5.25,5.25,0,0,0-.29,1.37,67.25,67.25,0,0,0,2.29,14.1A53.36,53.36,0,0,0,35,148.11a15.17,15.17,0,0,0,.47,1.79,103.78,103.78,0,0,0,31.45,44c3.77,3.12,6.55,2.7,9.23-1.42q11.07-17,22.11-34c.4-.61,1-1.16.81-2h0l0-.09-.06-.08c1-2,2.77-3.59,3.58-5.74.23-.18.31-.51.51-.73,0-.23,0-.46.05-.7A5.43,5.43,0,0,0,103.19,146.19Zm-69.36-3.11,0-.11.05.06A.09.09,0,0,0,33.83,143.08Z"/></g><path class="cls-4" d="M103.19,142.19a2.94,2.94,0,0,0-.46-.88,52.73,52.73,0,0,1-10-13.45,61.24,61.24,0,0,1-3.28-10.23c-.61-3.28-1.91-4.39-5.19-4.39q-24.58,0-49.17,0a3.61,3.61,0,0,0-2.58.48A3.84,3.84,0,0,0,29.63,117a5.25,5.25,0,0,0-.29,1.37,67.25,67.25,0,0,0,2.29,14.1A53.36,53.36,0,0,0,35,144.11a15.17,15.17,0,0,0,.47,1.79,103.78,103.78,0,0,0,31.45,44c3.77,3.12,6.55,2.7,9.23-1.42q11.07-17,22.11-34c.4-.61,1-1.16.81-2h0l0-.09-.06-.08c1-2,2.77-3.59,3.58-5.74.23-.18.31-.51.51-.73,0-.23,0-.46.05-.7A5.43,5.43,0,0,0,103.19,142.19Zm-69.36-3.11,0-.11.05.06A.09.09,0,0,0,33.83,139.08Z"/><g class="cls-2"><path class="cls-3" d="M183.3,24.25c0-2.2-1.48-3.27-3.22-4.15a104.4,104.4,0,0,0-94.53.1c-3.34,1.69-4.24,5-2.33,8.2.46.77,1,1.48,1.52,2.21,1.93,2.59,3.56,5.37,5.43,8a.43.43,0,0,0,0,.48,3.57,3.57,0,0,0,.23.57l20.19,31.06a3.73,3.73,0,0,0,1.62,1.55h0a.76.76,0,0,0,.79.28,2.39,2.39,0,0,0,2.63,0h0a5.06,5.06,0,0,0,2-.85l.06-.06-.06.06,5.3-1.46a1.6,1.6,0,0,0,.62-.17,46.86,46.86,0,0,1,26.66,2.6,3.51,3.51,0,0,0,4.38-1.39c.42-.54.87-1.06,1.25-1.63,4.44-6.82,8.9-13.64,13.32-20.48,2.28-3.54,4.49-7.11,6.74-10.66a.81.81,0,0,0-.31-.19c1.15-1.74,2.41-3.41,3.44-5.22,1.35-2.37,3.47-4.31,4.07-7.1A1.65,1.65,0,0,0,183.3,24.25Zm-10.81,18h0s0-.06,0-.09h.05Z"/></g><path class="cls-4" d="M183.3,20.25c0-2.2-1.48-3.27-3.22-4.15a104.4,104.4,0,0,0-94.53.1c-3.34,1.69-4.24,5-2.33,8.2.46.77,1,1.48,1.52,2.21,1.93,2.59,3.56,5.37,5.43,8a.43.43,0,0,0,0,.48,3.57,3.57,0,0,0,.23.57l20.19,31.06a3.73,3.73,0,0,0,1.62,1.55h0a.76.76,0,0,0,.79.28,2.39,2.39,0,0,0,2.63,0h0a5.06,5.06,0,0,0,2-.85l.06-.06-.06.06,5.3-1.46a1.6,1.6,0,0,0,.62-.17,46.86,46.86,0,0,1,26.66,2.6,3.51,3.51,0,0,0,4.38-1.39c.42-.54.87-1.06,1.25-1.63,4.44-6.82,8.9-13.64,13.32-20.48,2.28-3.54,4.49-7.11,6.74-10.66a.81.81,0,0,0-.31-.19c1.15-1.74,2.41-3.41,3.44-5.22,1.35-2.37,3.47-4.31,4.07-7.1A1.65,1.65,0,0,0,183.3,20.25Zm-10.81,18h0s0-.06,0-.09h.05Z"/><g class="cls-2"><circle class="cls-3" cx="132.61" cy="114.04" r="27.41"/></g><circle class="cls-4" cx="132.61" cy="110.04" r="27.41"/></svg>