<svg id="Capa_1" data-name="Capa 1" xmlns="http://www.w3.org/2000/svg" viewBox="0 0 1232 234"><defs><style>.cls-1{opacity:0.75;}.cls-2{fill:#fff;}.cls-3{fill:#fff;}</style></defs><title>logo_chally</title><g class="cls-1"><path class="cls-2" d="M68.84,41.23c0,.22,0,.44-.07.66a78.46,78.46,0,0,1-5.82-9C65.48,35.25,67,38.38,68.84,41.23Z"/><path class="cls-2" d="M64,207.12v.9c-.33.84-.24,2.08-1.73,1.79Z"/><path class="cls-2" d="M67.08,204.49a2.52,2.52,0,0,1,1.32-1.77A2.54,2.54,0,0,1,67.08,204.49Z"/><path class="cls-2" d="M74.6,169.1H75c-.07.59-.41,1.17,0,1.76-1.74,2.54-3.2,5.28-5.27,7.6a1.06,1.06,0,0,1-.49-.47,1.34,1.34,0,0,1,.14-1.26,54.68,54.68,0,0,0,3.27-6.14C73.07,169.79,73.49,169,74.6,169.1Z"/><path class="cls-2" d="M53.8,38.59A5.62,5.62,0,0,1,56,42.13h0c-2.26-.12-3.11-1.47-2.22-3.54Z"/><path class="cls-2" d="M63.54,188.56c-.36-2.47,1.82-3.81,2.63-5.77a22.08,22.08,0,0,1,2.68-4c.38-.21,0-1.17.88-.89l0,.51c-1.14,2.91-3.26,5.22-4.85,7.85Z"/><path class="cls-2" d="M83.45,61.15a4.12,4.12,0,0,1,1.3,3.61A2.7,2.7,0,0,1,83.41,63C83.42,62.4,83.43,61.77,83.45,61.15Z"/><path class="cls-2" d="M168,213.59h0c0-.59.17-1.21-.5-1.58h0q-2-3.09-3.94-6.18h0a54.66,54.66,0,0,0-6.24-9.67h0c-3.74-5.72-7-11.75-11.08-17.25-2.61-4.09-5.2-8.19-7.83-12.27-1.89-2.94-3.7-3.52-6.93-2.25a46.18,46.18,0,0,1-12,3,47.13,47.13,0,0,1-22.75-3.08c-2.88-1.14-4.74-.51-6.43,2.08-2.62,4-5.19,8-7.77,12a155.2,155.2,0,0,0-8.81,13.72c-3.5,4.85-6.64,9.94-9.8,15a.6.6,0,0,0-.11.71l0,0c-.52.67-.65,1.64-1.59,2a5.61,5.61,0,0,0-1.78,4.85,4.35,4.35,0,0,0,2.36,4.63,86.2,86.2,0,0,0,20.89,8.28h0a5.56,5.56,0,0,0,2.26.79,110.85,110.85,0,0,0,43.81,2.58,108.16,108.16,0,0,0,35-11.07c1.61-.83,3-1.85,3.16-3.89h0A3.34,3.34,0,0,0,168,213.59Zm-42.56,15.94a10,10,0,0,0,2.12.08l.45-.06c-.87.15-1.74.28-2.61.41a2.1,2.1,0,0,0,.15-.3A1.27,1.27,0,0,0,125.45,229.53Z"/><path class="cls-2" d="M168,26.08h0c0-2.35-1.59-3.49-3.43-4.43a111.25,111.25,0,0,0-100.75.11c-3.55,1.8-4.52,5.29-2.48,8.74.49.82,1.08,1.57,1.62,2.36,2.06,2.75,3.79,5.72,5.78,8.52a.46.46,0,0,0,0,.51,3.26,3.26,0,0,0,.25.61L90.53,75.6a4,4,0,0,0,1.73,1.65.81.81,0,0,0,.84.3,2.56,2.56,0,0,0,2.81,0h0a5.51,5.51,0,0,0,2.13-.9.46.46,0,0,1,.07-.07l-.07.07,5.65-1.57a1.49,1.49,0,0,0,.66-.18,49.88,49.88,0,0,1,28.42,2.78,3.73,3.73,0,0,0,4.66-1.48c.45-.58.93-1.13,1.33-1.74q7.11-10.9,14.2-21.83c2.43-3.77,4.79-7.57,7.18-11.36s4.84-7.34,7.25-11A3.15,3.15,0,0,0,168,28,2.12,2.12,0,0,0,168,26.08ZM83.93,62.5c0,.13.07.27.11.41a1.42,1.42,0,0,1-.14-.36Zm72.53-17.2h0s0-.06,0-.09l.05,0-.07.11Z"/><path class="cls-2" d="M268.35,62.46a4.83,4.83,0,0,0,4.83-4.83V22.7a7.94,7.94,0,0,0-2.45-5.8,7.91,7.91,0,0,0-5.8-2.44H205.09a7.92,7.92,0,0,0-5.81,2.44,7.93,7.93,0,0,0-2.44,5.8V57.63a4.83,4.83,0,0,0,4.83,4.83Z"/><path class="cls-2" d="M327.33,181.06a4.69,4.69,0,0,0-4.69,4.69V220a8.35,8.35,0,0,0,8.25,8.25h59.84A8.37,8.37,0,0,0,399,220v-34.2a4.69,4.69,0,0,0-4.69-4.69Z"/><path class="cls-2" d="M396.53,18c-1.63-2.34-3.56-3.52-5.8-3.52H330.89c-2.25,0-4.18,1.18-5.81,3.52a14.34,14.34,0,0,0-2.44,8.37V82.14A4.68,4.68,0,0,1,318,86.82H277.86a4.68,4.68,0,0,1-4.68-4.68v-7a4.69,4.69,0,0,0-4.69-4.69h-67a4.69,4.69,0,0,0-4.69,4.69V216.5a13.69,13.69,0,0,0,2.44,8.45,7.14,7.14,0,0,0,5.81,3.25h59.84c2.24,0,4.17-1.15,5.8-3.47a13.9,13.9,0,0,0,2.45-8.23V158.69a4.69,4.69,0,0,1,4.68-4.69H318a4.69,4.69,0,0,1,4.69,4.69v9.72a4.69,4.69,0,0,0,4.69,4.69h67a4.69,4.69,0,0,0,4.69-4.69V26.35A14.34,14.34,0,0,0,396.53,18Z"/><path class="cls-2" d="M846.07,168.05a7.92,7.92,0,0,0-5.8-2.45H755.69v0H685.56a7.43,7.43,0,0,0-7.43,7.43V220a8.37,8.37,0,0,0,8.25,8.25H840.27a8.35,8.35,0,0,0,8.24-8.25v-46.1A7.91,7.91,0,0,0,846.07,168.05Z"/><path class="cls-2" d="M748.26,152.74a7.43,7.43,0,0,0,7.43-7.43V22.7a8,8,0,0,0-2.44-5.8,8,8,0,0,0-5.8-2.44H686.38a7.9,7.9,0,0,0-5.8,2.44,7.9,7.9,0,0,0-2.45,5.8V145.31a7.43,7.43,0,0,0,7.43,7.43Z"/><path class="cls-2" d="M1030.17,168.05a8,8,0,0,0-5.81-2.45H939.79v0H869.66a7.43,7.43,0,0,0-7.43,7.43V220a8.35,8.35,0,0,0,8.24,8.25h153.89a8.35,8.35,0,0,0,8.25-8.25v-46.1A8,8,0,0,0,1030.17,168.05Z"/><path class="cls-2" d="M932.36,152.74a7.43,7.43,0,0,0,7.43-7.43V22.7a7.94,7.94,0,0,0-2.45-5.8,7.91,7.91,0,0,0-5.8-2.44H870.47a7.91,7.91,0,0,0-5.8,2.44,7.93,7.93,0,0,0-2.44,5.8V145.31a7.43,7.43,0,0,0,7.43,7.43Z"/><path class="cls-2" d="M1093.1,23.45a18.86,18.86,0,0,0-5-6.35l-.06-.05a13,13,0,0,0-8.4-2.59h-57.4a6.78,6.78,0,0,0-6.72,6.72,6,6,0,0,0,.61,2.74l66.62,131.77a19.27,19.27,0,0,1,2.08,8.72V220a8.37,8.37,0,0,0,8.25,8.25h59.84a8.35,8.35,0,0,0,8.25-8.25V166.46a19.28,19.28,0,0,0-2-8.53Z"/><path class="cls-2" d="M1228.5,16.44a6.46,6.46,0,0,0-4.73-2h-57.4a13,13,0,0,0-8.4,2.59,16.44,16.44,0,0,0-4.43,5L1130.73,68a5.24,5.24,0,0,0,0,4.68l32.07,65.26a5.27,5.27,0,0,0,9.44.05l57.65-114a6.1,6.1,0,0,0,.61-2.74A6.45,6.45,0,0,0,1228.5,16.44Z"/><path class="cls-2" d="M566.58,14.61c-104.13,2.06-67.75-20.34-108.86,85.58-51.24,157.89-65.27,124.07,19.54,128Z"/><path class="cls-2" d="M654.29,220.89S585,22.68,582.92,16.71c0,.67.37-1.45-2.5-2.05-3.35.69-2.35,2.06-2.7,1.88L502.57,196.23l-.45,1.07c-1.16,2.46,3,4.31,2.7,3.73h61.11c7.74,1.5,5.93,31.41,22.41,29.15C642.35,229.1,656.71,234.76,654.29,220.89Z"/><path class="cls-2" d="M82.61,159h0c1-1,.52-2,0-3h0a3.49,3.49,0,0,0-.49-.94,55.67,55.67,0,0,1-10.61-14.33,85.33,85.33,0,0,1-3-8.8c-2-9.77-1.5-15.6-1-18.34a7,7,0,0,0,.38-1.34A46.83,46.83,0,0,1,81.43,87.21,5.07,5.07,0,0,0,82.58,81c-1.93-3.65-4.36-7-6.6-10.44C68.41,58.92,60.76,47.35,53.23,35.7c-1.93-3-6.28-4-8.32-1.62a101,101,0,0,0-20.3,21.35A109.59,109.59,0,0,0,4.12,108.24h0c0,.06,0,.11,0,.17l-.12,1c0,.41,0,.79,0,1.17a149.78,149.78,0,0,0,0,20h0v0c.3,4.36.71,6.85.71,6.85h0a60,60,0,0,0,1.71,8.13,56.36,56.36,0,0,0,3.56,12.4,17.69,17.69,0,0,0,.5,1.9,110.5,110.5,0,0,0,33.52,46.85c4,3.33,7,2.88,9.83-1.51Q65.57,187.19,77.33,169c.42-.66,1.12-1.24.87-2.17h0l.06-.1-.06-.09h0a12.63,12.63,0,0,0,4.34-6.89h0C82.57,159.54,82.59,159.29,82.61,159ZM8.69,152.71a.36.36,0,0,0,0-.11l0,.06A.09.09,0,0,1,8.69,152.71Zm64.23,19.95-1.24,1.83c.86-1.44,1.73-2.87,2.46-4.38a.91.91,0,0,0,.53.84A4.07,4.07,0,0,0,72.92,172.66Z"/></g><path class="cls-3" d="M68.84,36.23c0,.22,0,.44-.07.66a78.46,78.46,0,0,1-5.82-9C65.48,30.25,67,33.38,68.84,36.23Z"/><path class="cls-3" d="M64,202.12v.9c-.33.84-.24,2.08-1.73,1.79Z"/><path class="cls-3" d="M67.08,199.49a2.52,2.52,0,0,1,1.32-1.77A2.54,2.54,0,0,1,67.08,199.49Z"/><path class="cls-3" d="M74.6,164.1H75c-.07.59-.41,1.17,0,1.76-1.74,2.54-3.2,5.28-5.27,7.6a1.06,1.06,0,0,1-.49-.47,1.34,1.34,0,0,1,.14-1.26,54.68,54.68,0,0,0,3.27-6.14C73.07,164.79,73.49,164,74.6,164.1Z"/><path class="cls-3" d="M53.8,33.59A5.62,5.62,0,0,1,56,37.13h0c-2.26-.12-3.11-1.47-2.22-3.54Z"/><path class="cls-3" d="M63.54,183.56c-.36-2.47,1.82-3.81,2.63-5.77a22.08,22.08,0,0,1,2.68-4c.38-.21,0-1.17.88-.89l0,.51c-1.14,2.91-3.26,5.22-4.85,7.85Z"/><path class="cls-3" d="M83.45,56.15a4.12,4.12,0,0,1,1.3,3.61A2.7,2.7,0,0,1,83.41,58C83.42,57.4,83.43,56.77,83.45,56.15Z"/><path class="cls-3" d="M168,208.59h0c0-.59.17-1.21-.5-1.58h0q-2-3.09-3.94-6.18h0a54.66,54.66,0,0,0-6.24-9.67h0c-3.74-5.72-7-11.75-11.08-17.25-2.61-4.09-5.2-8.19-7.83-12.27-1.89-2.94-3.7-3.52-6.93-2.25a46.18,46.18,0,0,1-12,3,47.13,47.13,0,0,1-22.75-3.08c-2.88-1.14-4.74-.51-6.43,2.08-2.62,4-5.19,8-7.77,12a155.2,155.2,0,0,0-8.81,13.72c-3.5,4.85-6.64,9.94-9.8,15a.6.6,0,0,0-.11.71l0,0c-.52.67-.65,1.64-1.59,2a5.61,5.61,0,0,0-1.78,4.85,4.35,4.35,0,0,0,2.36,4.63,86.2,86.2,0,0,0,20.89,8.28h0a5.56,5.56,0,0,0,2.26.79,110.85,110.85,0,0,0,43.81,2.58,108.16,108.16,0,0,0,35-11.07c1.61-.83,3-1.85,3.16-3.89h0A3.34,3.34,0,0,0,168,208.59Zm-42.56,15.94a10,10,0,0,0,2.12.08l.45-.06c-.87.15-1.74.28-2.61.41a2.1,2.1,0,0,0,.15-.3A1.27,1.27,0,0,0,125.45,224.53Z"/><path class="cls-3" d="M168,21.08h0c0-2.35-1.59-3.49-3.43-4.43a111.25,111.25,0,0,0-100.75.11c-3.55,1.8-4.52,5.29-2.48,8.74.49.82,1.08,1.57,1.62,2.36,2.06,2.75,3.79,5.72,5.78,8.52a.46.46,0,0,0,0,.51,3.26,3.26,0,0,0,.25.61L90.53,70.6a4,4,0,0,0,1.73,1.65.81.81,0,0,0,.84.3,2.56,2.56,0,0,0,2.81,0h0a5.51,5.51,0,0,0,2.13-.9.46.46,0,0,1,.07-.07l-.07.07,5.65-1.57a1.49,1.49,0,0,0,.66-.18,49.88,49.88,0,0,1,28.42,2.78,3.73,3.73,0,0,0,4.66-1.48c.45-.58.93-1.13,1.33-1.74q7.11-10.9,14.2-21.83c2.43-3.77,4.79-7.57,7.18-11.36s4.84-7.34,7.25-11A3.15,3.15,0,0,0,168,23,2.12,2.12,0,0,0,168,21.08ZM83.93,57.5c0,.13.07.27.11.41a1.42,1.42,0,0,1-.14-.36Zm72.53-17.2h0s0-.06,0-.09l.05,0-.07.11Z"/><path class="cls-3" d="M268.35,57.46a4.83,4.83,0,0,0,4.83-4.83V17.7a7.94,7.94,0,0,0-2.45-5.8,7.91,7.91,0,0,0-5.8-2.44H205.09a7.92,7.92,0,0,0-5.81,2.44,7.93,7.93,0,0,0-2.44,5.8V52.63a4.83,4.83,0,0,0,4.83,4.83Z"/><path class="cls-3" d="M327.33,176.06a4.69,4.69,0,0,0-4.69,4.69V215a8.35,8.35,0,0,0,8.25,8.25h59.84A8.37,8.37,0,0,0,399,215v-34.2a4.69,4.69,0,0,0-4.69-4.69Z"/><path class="cls-3" d="M396.53,13c-1.63-2.34-3.56-3.52-5.8-3.52H330.89c-2.25,0-4.18,1.18-5.81,3.52a14.34,14.34,0,0,0-2.44,8.37V77.14A4.68,4.68,0,0,1,318,81.82H277.86a4.68,4.68,0,0,1-4.68-4.68v-7a4.69,4.69,0,0,0-4.69-4.69h-67a4.69,4.69,0,0,0-4.69,4.69V211.5a13.69,13.69,0,0,0,2.44,8.45,7.14,7.14,0,0,0,5.81,3.25h59.84c2.24,0,4.17-1.15,5.8-3.47a13.9,13.9,0,0,0,2.45-8.23V153.69a4.69,4.69,0,0,1,4.68-4.69H318a4.69,4.69,0,0,1,4.69,4.69v9.72a4.69,4.69,0,0,0,4.69,4.69h67a4.69,4.69,0,0,0,4.69-4.69V21.35A14.34,14.34,0,0,0,396.53,13Z"/><path class="cls-3" d="M846.07,163.05a7.92,7.92,0,0,0-5.8-2.45H755.69v0H685.56a7.43,7.43,0,0,0-7.43,7.43V215a8.37,8.37,0,0,0,8.25,8.25H840.27a8.35,8.35,0,0,0,8.24-8.25v-46.1A7.91,7.91,0,0,0,846.07,163.05Z"/><path class="cls-3" d="M748.26,147.74a7.43,7.43,0,0,0,7.43-7.43V17.7a8,8,0,0,0-2.44-5.8,8,8,0,0,0-5.8-2.44H686.38a7.9,7.9,0,0,0-5.8,2.44,7.9,7.9,0,0,0-2.45,5.8V140.31a7.43,7.43,0,0,0,7.43,7.43Z"/><path class="cls-3" d="M1030.17,163.05a8,8,0,0,0-5.81-2.45H939.79v0H869.66a7.43,7.43,0,0,0-7.43,7.43V215a8.35,8.35,0,0,0,8.24,8.25h153.89a8.35,8.35,0,0,0,8.25-8.25v-46.1A8,8,0,0,0,1030.17,163.05Z"/><path class="cls-3" d="M932.36,147.74a7.43,7.43,0,0,0,7.43-7.43V17.7a7.94,7.94,0,0,0-2.45-5.8,7.91,7.91,0,0,0-5.8-2.44H870.47a7.91,7.91,0,0,0-5.8,2.44,7.93,7.93,0,0,0-2.44,5.8V140.31a7.43,7.43,0,0,0,7.43,7.43Z"/><path class="cls-3" d="M1093.1,18.45a18.86,18.86,0,0,0-5-6.35l-.06,0a13,13,0,0,0-8.4-2.59h-57.4a6.46,6.46,0,0,0-4.73,2,6.45,6.45,0,0,0-2,4.74,6,6,0,0,0,.61,2.74l66.62,131.77a19.27,19.27,0,0,1,2.08,8.72V215a8.37,8.37,0,0,0,8.25,8.25h59.84a8.35,8.35,0,0,0,8.25-8.25V161.46a19.28,19.28,0,0,0-2-8.53Z"/><path class="cls-3" d="M1228.5,11.44a6.46,6.46,0,0,0-4.73-2h-57.4a13,13,0,0,0-8.4,2.59,16.44,16.44,0,0,0-4.43,5L1130.73,63a5.24,5.24,0,0,0,0,4.68l32.07,65.26a5.27,5.27,0,0,0,9.44.05l57.65-114a6.1,6.1,0,0,0,.61-2.74A6.45,6.45,0,0,0,1228.5,11.44Z"/><path class="cls-3" d="M566.58,9.61c-104.13,2.06-67.75-20.34-108.86,85.58-51.24,157.89-65.27,124.07,19.54,128Z"/><path class="cls-3" d="M654.29,215.89S585,17.68,582.92,11.71c0,.67.37-1.45-2.5-2.05-3.35.69-2.35,2.06-2.7,1.88L502.57,191.23l-.45,1.07c-1.16,2.46,3,4.31,2.7,3.73h61.11c7.74,1.5,5.93,31.41,22.41,29.15C642.35,224.1,656.71,229.76,654.29,215.89Z"/><path class="cls-3" d="M82.61,154h0c1-1,.52-2,0-3h0a3.49,3.49,0,0,0-.49-.94,55.67,55.67,0,0,1-10.61-14.33,85.33,85.33,0,0,1-3-8.8c-2-9.77-1.5-15.6-1-18.34a7,7,0,0,0,.38-1.34A46.83,46.83,0,0,1,81.43,82.21,5.07,5.07,0,0,0,82.58,76c-1.93-3.65-4.36-7-6.6-10.44C68.41,53.92,60.76,42.35,53.23,30.7c-1.93-3-6.28-3.95-8.32-1.62a101,101,0,0,0-20.3,21.35A109.59,109.59,0,0,0,4.12,103.24h0c0,.06,0,.11,0,.17l-.12,1c0,.41,0,.79,0,1.17a149.78,149.78,0,0,0,0,20h0v0c.3,4.36.71,6.85.71,6.85h0a60,60,0,0,0,1.71,8.13,56.36,56.36,0,0,0,3.56,12.4,17.69,17.69,0,0,0,.5,1.9,110.5,110.5,0,0,0,33.52,46.85c4,3.33,7,2.88,9.83-1.51Q65.57,182.19,77.33,164c.42-.66,1.12-1.24.87-2.17h0l.06-.1-.06-.09h0a12.63,12.63,0,0,0,4.34-6.89h0C82.57,154.54,82.59,154.29,82.61,154ZM8.69,147.71a.36.36,0,0,0,0-.11l0,.06A.09.09,0,0,1,8.69,147.71Zm64.23,19.95-1.24,1.83c.86-1.44,1.73-2.87,2.46-4.38a.91.91,0,0,0,.53.84A4.07,4.07,0,0,0,72.92,167.66Z"/></svg>